<svg width="1086" height="1086" xmlns="http://www.w3.org/2000/svg" xmlns:xlink="http://www.w3.org/1999/xlink" xml:space="preserve" overflow="hidden"><defs><clipPath id="clip0"><rect x="1432" y="694" width="1086" height="1086"/></clipPath></defs><g clip-path="url(#clip0)" transform="translate(-1432 -694)"><path d="M2397.86 1548.53C2393.87 1547.06 2387.36 1543.91 2391.77 1536.97 2394.71 1532.13 2391.77 1528.56 2389.67 1524.77 2386.94 1520.36 2383.79 1516.36 2381.27 1511.95 2377.91 1506.27 2373.28 1504.38 2366.77 1504.17 2350.6 1503.54 2334.43 1502.48 2318.25 1501.22 2314.26 1501.01 2312.16 1498.7 2315.31 1494.7 2318.25 1490.92 2321.41 1487.34 2324.56 1483.98 2334.22 1473.26 2334.64 1467.79 2327.5 1459.17 2320.78 1451.18 2313.63 1443.82 2306.28 1436.67 2303.76 1434.15 2301.45 1432.05 2303.34 1427.84 2304.39 1425.53 2303.76 1422.79 2300.4 1421.53 2296.41 1419.85 2292.63 1417.12 2288.64 1415.01 2283.39 1412.28 2280.03 1408.92 2278.35 1402.82 2275.83 1394.41 2274.36 1385.37 2268.06 1378.64 2265.54 1375.9 2265.33 1374.43 2268.06 1371.7 2272.26 1367.7 2272.05 1364.55 2266.17 1361.61 2260.28 1358.66 2255.66 1353.62 2249.78 1350.67 2245.58 1348.57 2247.05 1346.47 2248.31 1343.94 2251.25 1338.69 2256.92 1337.64 2261.96 1335.95 2268.06 1333.85 2270.79 1331.33 2268.06 1324.39 2262.39 1310.72 2265.11 1291.17 2279.4 1282.34 2285.28 1278.55 2289.27 1271.61 2297.88 1272.03 2309.01 1272.45 2317.42 1260.89 2314.47 1249.74 2312.58 1243.02 2310.48 1236.29 2307.96 1229.77 2305.44 1223.25 2305.65 1218.21 2311.53 1213.58 2316.78 1209.37 2321.2 1204.12 2326.03 1199.28 2327.5 1197.81 2328.76 1196.55 2329.39 1194.03 2332.54 1182.25 2335.9 1170.69 2339.47 1159.12 2340.52 1155.97 2342.2 1153.44 2345.35 1151.55 2365.3 1139.57 2384.84 1127.37 2404.58 1115.39 2411.72 1110.97 2418.44 1104.87 2426.43 1102.77 2438.4 1099.62 2451.21 1099.62 2463.6 1097.94 2475.36 1096.25 2486.71 1094.15 2496.58 1087 2510.23 1134.52 2518 1184.77 2518 1236.71 2518 1355.3 2479.57 1464.64 2415.29 1554 2409.41 1552.53 2403.53 1550.63 2397.86 1548.53Z" fill="#CE062B" fill-rule="evenodd"/><path d="M1432 1236.89C1432 937.2 1675.07 694 1974.87 694 2156.17 694 2316.26 783.257 2415 919.769 2407.86 927.539 2398.61 931.951 2391.05 938.25 2390.42 938.671 2389.16 938.671 2388.32 938.671 2376.98 938.25 2365.63 940.77 2354.28 938.671 2342.73 936.36 2331.39 931.951 2326.13 921.24 2321.51 911.578 2315.84 902.967 2310.59 893.937 2306.8 887.426 2302.39 884.066 2294.2 884.906 2283.06 885.746 2280.33 881.125 2283.9 869.995 2287.27 859.914 2285.17 852.353 2275.92 847.733 2265.84 842.692 2255.96 837.862 2246.51 831.771 2239.79 827.361 2231.8 824.631 2224.24 821.27 2221.51 820.011 2219.83 818.33 2220.25 814.76 2220.88 810.35 2220.25 806.149 2216.26 803.209 2215 802.369 2214.37 801.109 2214.58 799.429 2216.26 789.768 2209.74 785.568 2203.02 780.107 2195.88 774.227 2184.53 771.706 2183.27 759.945 2182.64 754.065 2180.54 753.645 2175.29 755.955 2171.09 757.635 2167.1 762.256 2162.05 760.366 2151.34 756.585 2140.63 752.385 2129.91 748.185 2126.97 747.135 2122.98 743.774 2120.88 745.874 2118.36 748.394 2119.62 753.225 2120.25 757.005 2120.67 758.895 2122.98 760.786 2124.66 762.466 2133.69 771.286 2140 780.947 2139.16 794.809 2138.74 800.899 2139.16 807.619 2141.05 813.71 2142.52 818.75 2141.68 821.481 2135.79 820.851 2131.38 820.221 2129.7 821.481 2128.23 826.731 2125.29 836.392 2122.56 846.263 2118.15 855.713 2111 870.625 2101.34 883.226 2090.21 895.407 2077.39 909.688 2064.79 923.969 2050.5 936.99 2047.14 940.141 2043.57 943.92 2038.52 945.6 2020.67 951.271 2002.81 956.311 1985.58 963.243 1965.41 971.434 1942.09 972.062 1925.71 989.074 1918.98 996.215 1908.27 1000.21 1907.01 1011.76 1906.59 1015.33 1905.75 1018.69 1904.91 1022.05 1900.08 1019.74 1895.24 1017.43 1889.99 1014.91 1888.31 1021.21 1890.62 1026.67 1888.1 1032.13 1878.23 1053.13 1871.08 1074.97 1867.3 1098.07 1866.25 1104.58 1864.99 1112.57 1854.91 1111.09 1853.23 1110.89 1852.8 1112.57 1851.75 1113.41 1844.19 1120.13 1842.93 1128.11 1846.71 1137.14 1848.18 1140.71 1845.87 1140.29 1844.19 1139.87 1835.79 1137.56 1827.17 1138.4 1818.77 1137.35 1815.41 1136.93 1813.94 1135.67 1812.68 1132.94 1808.06 1123.49 1803.02 1114.25 1798.6 1104.58 1796.92 1101.01 1795.24 1099.54 1791.04 1099.12 1781.8 1098.28 1772.13 1098.7 1764.36 1091.98 1762.05 1089.88 1759.53 1088.2 1756.59 1087.36 1752.17 1085.89 1748.18 1084.84 1744.19 1089.04 1741.25 1091.98 1737.68 1094.29 1734.11 1096.6 1732.84 1097.44 1732.43 1100.17 1730.32 1098.49 1728.86 1097.23 1727.38 1095.55 1728.43 1093.24 1729.06 1091.98 1728.22 1090.09 1728.86 1089.04 1734.32 1080.85 1731.38 1076.23 1722.55 1073.92 1722.34 1073.92 1722.13 1073.5 1721.92 1073.5 1716.25 1071.4 1718.14 1068.46 1721.29 1065.73 1726.12 1061.53 1731.59 1059.85 1738.1 1060.27 1745.45 1060.9 1751.96 1051.66 1748.6 1045.36 1743.98 1036.75 1742.09 1027.72 1741.67 1018.27 1741.46 1016.17 1740.83 1015.12 1738.73 1015.33 1734.74 1015.54 1729.91 1013.65 1728.43 1019.95 1728.01 1022.05 1726.12 1022.68 1724.02 1022.68 1719.4 1022.47 1713.94 1021.21 1715.41 1029.4 1715.83 1031.92 1712.47 1031.92 1710.79 1032.76 1705.32 1035.49 1697.97 1036.12 1694.82 1041.58 1688.1 1053.34 1677.38 1061.53 1668.98 1071.61 1664.36 1077.07 1658.26 1081.48 1658.26 1090.72 1658.26 1098.49 1658.68 1107.53 1653.01 1114.25 1651.33 1116.13 1653.01 1116.97 1653.85 1118.24 1658.26 1124.96 1664.57 1129.79 1669.82 1135.67 1673.6 1139.66 1673.6 1147.64 1670.03 1148.48 1667.09 1149.11 1662.47 1148.9 1663.52 1152.68 1664.78 1157.93 1662.68 1165.07 1669.19 1168.22 1682.42 1174.52 1687.47 1185.65 1689.15 1199.3 1689.36 1201.82 1690.2 1205.39 1687.05 1206.23 1684.31 1207.07 1680.95 1209.59 1678.43 1205.39 1677.8 1204.34 1676.75 1203.29 1674.86 1204.34 1670.66 1206.86 1667.93 1224.71 1671.92 1227.44 1683.9 1235.64 1694.19 1246.35 1707.42 1252.86 1721.5 1259.79 1735.37 1267.14 1749.23 1274.49 1752.38 1276.17 1754.9 1277.85 1757.22 1280.79 1765.41 1292.34 1774.02 1303.47 1782.43 1314.81 1785.37 1318.8 1790.83 1322.16 1790.62 1327.41 1790.2 1334.55 1792.93 1340.22 1796.08 1346.1 1797.76 1349.04 1800.91 1352.4 1800.7 1355.34 1799.86 1362.91 1805.33 1365.64 1809.74 1369 1811.84 1370.68 1813.94 1372.36 1815.41 1374.46 1824.23 1386.64 1833.06 1398.82 1842.09 1410.79 1843.35 1412.47 1845.03 1413.94 1844.61 1416.46 1843.35 1422.55 1847.34 1425.91 1851.75 1428.64 1857.22 1432 1860.16 1435.99 1859.32 1442.71 1858.69 1446.7 1859.32 1450.27 1862.68 1453.84 1867.09 1458.25 1871.29 1463.5 1869.4 1470.85 1868.56 1474.42 1871.92 1474.84 1873.6 1475.68 1878.44 1478 1880.54 1482.2 1882.22 1486.4 1887.26 1500.26 1892.93 1513.7 1899.66 1526.93 1901.13 1530.08 1903.02 1533.65 1902.81 1536.8 1902.18 1546.25 1905.12 1554.02 1909.95 1562.21 1919.61 1578.17 1929.07 1594.35 1937.26 1611.15 1943.77 1624.38 1955.33 1635.93 1952.39 1652.73 1951.97 1654.62 1953.23 1655.88 1954.91 1656.51 1966.67 1661.13 1972.98 1672.05 1982.01 1679.61 1984.32 1681.5 1984.53 1684.23 1985.37 1686.33 1987.05 1691.79 1987.26 1697.46 1988.94 1702.92 1990.62 1708.59 1989.99 1715.11 1993.77 1720.35 1999.45 1728.13 2006.38 1734.63 2013.52 1741.36 2016.67 1744.3 2018.78 1747.66 2019.2 1751.65 2019.62 1755.85 2022.14 1758.37 2024.45 1761.31 2028.23 1766.35 2032.43 1771.18 2036 1776.43 2016.26 1778.53 1996.09 1780 1975.71 1780 1675.28 1779.58 1432 1536.59 1432 1236.89Z" fill="#CE062B" fill-rule="evenodd"/></g></svg>