<svg width="167" height="47" viewBox="0 0 167 47" fill="none" xmlns="http://www.w3.org/2000/svg">
<g clip-path="url(#clip0_195_36270)">
<path d="M40.1109 36.4222C39.9451 36.3611 39.6746 36.2302 39.8579 35.9423C39.98 35.7416 39.8579 35.5933 39.7706 35.4362C39.6572 35.253 39.5263 35.0872 39.4216 34.9039C39.282 34.6684 39.09 34.5898 38.8195 34.5811C38.1476 34.5549 37.4758 34.5113 36.8039 34.4589C36.6381 34.4502 36.5509 34.3542 36.6817 34.1884C36.8039 34.0314 36.9348 33.883 37.0657 33.7434C37.4671 33.2984 37.4845 33.0716 37.1878 32.7138C36.9086 32.3822 36.6119 32.0768 36.3065 31.7802C36.2018 31.6755 36.1059 31.5882 36.1844 31.4137C36.228 31.3177 36.2018 31.2043 36.0622 31.1519C35.8964 31.0821 35.7394 30.9687 35.5736 30.8814C35.3555 30.768 35.2158 30.6284 35.146 30.3754C35.0413 30.0263 34.9803 29.6511 34.7185 29.3719C34.6138 29.2585 34.6051 29.1974 34.7185 29.084C34.893 28.9182 34.8843 28.7873 34.64 28.6651C34.3956 28.543 34.2037 28.3336 33.9594 28.2114C33.7849 28.1242 33.8459 28.0369 33.8983 27.9322C34.0204 27.7141 34.256 27.6704 34.4654 27.6006C34.7185 27.5134 34.8319 27.4087 34.7185 27.1207C34.4829 26.5536 34.5963 25.7421 35.1897 25.3756C35.434 25.2185 35.5998 24.9306 35.9575 24.948C36.42 24.9655 36.769 24.4856 36.6468 24.0231C36.5683 23.7439 36.4811 23.4647 36.3764 23.1942C36.2716 22.9237 36.2804 22.7143 36.5247 22.5223C36.7428 22.3478 36.9261 22.1297 37.1268 21.929C37.1878 21.8679 37.2402 21.8156 37.2664 21.7109C37.3972 21.2222 37.5369 20.7423 37.6852 20.2624C37.7288 20.1315 37.7986 20.0268 37.9295 19.9483C38.7584 19.4509 39.5699 18.9448 40.3901 18.4475C40.6868 18.2642 40.966 18.0112 41.2976 17.924C41.7949 17.7931 42.3272 17.7931 42.842 17.7233C43.3306 17.6535 43.8018 17.5662 44.2119 17.2695C44.7791 19.2415 45.1019 21.3269 45.1019 23.4821C45.1019 28.4034 43.5052 32.9407 40.8351 36.6491C40.5908 36.588 40.3465 36.5094 40.1109 36.4222Z" fill="#CE062B"/>
<path d="M0 23.4775C0 11.0261 10.0955 0.921875 22.5469 0.921875C30.0771 0.921875 36.726 4.63025 40.827 10.3019C40.5303 10.6247 40.1464 10.808 39.8323 11.0697C39.8061 11.0872 39.7538 11.0872 39.7189 11.0872C39.2477 11.0697 38.7765 11.1744 38.3053 11.0872C37.8254 10.9912 37.3542 10.808 37.1361 10.363C36.9441 9.96158 36.7085 9.60383 36.4904 9.22863C36.3333 8.95814 36.1501 8.81853 35.8098 8.85343C35.3473 8.88833 35.2339 8.69637 35.3822 8.23392C35.5219 7.81509 35.4346 7.50097 35.0507 7.309C34.6318 7.09959 34.2217 6.8989 33.8291 6.64586C33.5499 6.46262 33.2183 6.34919 32.9042 6.20958C32.7907 6.15723 32.7209 6.08742 32.7384 5.93909C32.7646 5.75585 32.7384 5.58134 32.5726 5.45918C32.5203 5.42428 32.4941 5.37192 32.5028 5.30212C32.5726 4.90074 32.3021 4.72623 32.0229 4.49936C31.7262 4.25505 31.255 4.15034 31.2027 3.66171C31.1765 3.41739 31.0893 3.39994 30.8711 3.49592C30.6966 3.56573 30.5308 3.75769 30.3214 3.67916C29.8764 3.5221 29.4314 3.34759 28.9864 3.17308C28.8642 3.12945 28.6985 2.98984 28.6112 3.07709C28.5065 3.1818 28.5588 3.38249 28.585 3.53955C28.6025 3.61808 28.6985 3.69661 28.7683 3.76642C29.1435 4.13289 29.4052 4.53427 29.3703 5.11016C29.3529 5.3632 29.3703 5.64242 29.4489 5.89546C29.5099 6.10487 29.475 6.21831 29.2307 6.19213C29.0475 6.16595 28.9777 6.21831 28.9166 6.43644C28.7944 6.83782 28.681 7.24792 28.4978 7.64057C28.2011 8.26009 27.7997 8.78363 27.3373 9.28971C26.805 9.88305 26.2815 10.4764 25.6881 11.0174C25.5485 11.1483 25.4002 11.3053 25.1908 11.3751C24.4491 11.6107 23.7074 11.8201 22.9919 12.1081C22.1543 12.4484 21.1857 12.4745 20.5051 13.1813C20.2259 13.478 19.7809 13.6438 19.7285 14.1237C19.7111 14.272 19.6762 14.4116 19.6413 14.5512C19.4406 14.4553 19.2399 14.3593 19.0218 14.2546C18.952 14.5163 19.048 14.7432 18.9432 14.9701C18.5331 15.8426 18.2365 16.7501 18.0794 17.7099C18.0358 17.9804 17.9834 18.312 17.5646 18.2509C17.4948 18.2422 17.4773 18.312 17.4337 18.3469C17.1196 18.6261 17.0672 18.9577 17.2243 19.3329C17.2854 19.4812 17.1894 19.4637 17.1196 19.4463C16.7706 19.3503 16.4128 19.3852 16.0638 19.3416C15.9242 19.3241 15.8631 19.2718 15.8108 19.1583C15.6188 18.7657 15.4094 18.3818 15.2261 17.9804C15.1563 17.8321 15.0865 17.771 14.912 17.7535C14.5281 17.7186 14.1267 17.7361 13.8039 17.4569C13.7079 17.3696 13.6032 17.2998 13.481 17.2649C13.2978 17.2038 13.132 17.1602 12.9662 17.3347C12.8441 17.4569 12.6957 17.5528 12.5474 17.6488C12.495 17.6837 12.4776 17.7972 12.3903 17.7274C12.3293 17.675 12.2682 17.6052 12.3118 17.5092C12.338 17.4569 12.3031 17.3783 12.3293 17.3347C12.5561 16.9944 12.434 16.8024 12.0675 16.7065C12.0588 16.7065 12.05 16.689 12.0413 16.689C11.8057 16.6018 11.8842 16.4796 12.0151 16.3662C12.2158 16.1916 12.4427 16.1218 12.7132 16.1393C13.0186 16.1655 13.2891 15.7815 13.1495 15.5198C12.9575 15.162 12.879 14.7868 12.8615 14.3942C12.8528 14.3069 12.8266 14.2633 12.7394 14.272C12.5736 14.2807 12.3729 14.2022 12.3118 14.464C12.2943 14.5512 12.2158 14.5774 12.1286 14.5774C11.9366 14.5687 11.7097 14.5163 11.7708 14.8566C11.7883 14.9613 11.6487 14.9613 11.5789 14.9962C11.352 15.1097 11.0466 15.1359 10.9157 15.3627C10.6365 15.8513 10.1915 16.1916 9.84246 16.6105C9.6505 16.8373 9.39746 17.0206 9.39746 17.4045C9.39746 17.7274 9.41491 18.1026 9.17932 18.3818C9.10951 18.4603 9.17932 18.4952 9.21422 18.5476C9.39746 18.8268 9.65922 19.0275 9.87736 19.2718C10.0344 19.4376 10.0344 19.7691 9.88609 19.804C9.76393 19.8302 9.57197 19.8215 9.6156 19.9786C9.66795 20.1967 9.58069 20.4934 9.85119 20.6242C10.4009 20.886 10.6103 21.3485 10.6801 21.9156C10.6888 22.0203 10.7237 22.1687 10.5929 22.2036C10.4794 22.2385 10.3398 22.3432 10.2351 22.1687C10.2089 22.125 10.1653 22.0814 10.0868 22.125C9.91227 22.2298 9.79883 22.9714 9.96462 23.0849C10.462 23.4252 10.8895 23.8702 11.4392 24.1407C12.0239 24.4286 12.5997 24.734 13.1756 25.0394C13.3065 25.1092 13.4112 25.179 13.5072 25.3012C13.8475 25.7811 14.2053 26.2435 14.5543 26.7147C14.6764 26.8805 14.9033 27.0201 14.8946 27.2382C14.8771 27.5349 14.9906 27.7705 15.1214 28.0148C15.1912 28.137 15.3221 28.2766 15.3134 28.3987C15.2785 28.7129 15.5054 28.8263 15.6886 28.9659C15.7759 29.0357 15.8631 29.1055 15.9242 29.1928C16.2907 29.6989 16.6571 30.2049 17.0323 30.7023C17.0847 30.7721 17.1545 30.8332 17.137 30.9379C17.0847 31.1909 17.2505 31.3305 17.4337 31.444C17.6606 31.5836 17.7827 31.7494 17.7478 32.0286C17.7217 32.1944 17.7478 32.3427 17.8874 32.491C18.0707 32.6743 18.2452 32.8924 18.1667 33.1978C18.1318 33.3461 18.2714 33.3636 18.3412 33.3985C18.5419 33.4945 18.6291 33.669 18.6989 33.8435C18.9083 34.4194 19.1439 34.9778 19.4232 35.5275C19.4842 35.6584 19.5628 35.8068 19.554 35.9376C19.5279 36.3303 19.65 36.6531 19.8507 36.9934C20.2521 37.6566 20.6447 38.3285 20.985 39.0265C21.2555 39.5762 21.7354 40.0561 21.6133 40.7542C21.5958 40.8327 21.6482 40.8851 21.718 40.9112C22.2066 41.1032 22.4684 41.5569 22.8436 41.871C22.9396 41.9496 22.9483 42.063 22.9832 42.1503C23.053 42.3771 23.0617 42.6127 23.1315 42.8396C23.2013 43.0752 23.1752 43.3457 23.3322 43.5638C23.5678 43.8867 23.8558 44.1571 24.1524 44.4364C24.2833 44.5585 24.3706 44.6981 24.388 44.8639C24.4055 45.0384 24.5102 45.1431 24.6062 45.2653C24.7632 45.4747 24.9377 45.6754 25.0861 45.8935C24.2659 45.9808 23.4282 46.0419 22.5818 46.0419C10.1042 46.0244 0 35.9289 0 23.4775Z" fill="#CE062B"/>
</g>
<path d="M52.7832 1.48047H68.22V6.59727H58.4472V16.0533H66.2136V21.1605H58.4472V32.1525H68.22V37.2597H52.7832V1.48047Z" fill="#0F1F38"/>
<path d="M73.2127 35.452C71.7727 33.8968 71.0527 31.6792 71.0527 28.78V9.96395C71.0527 7.06475 71.7727 4.84715 73.2127 3.29195C74.6527 1.73675 76.7455 0.96875 79.4911 0.96875C82.2367 0.96875 84.3295 1.74635 85.7695 3.29195C87.2095 4.84715 87.9295 7.06475 87.9295 9.96395V13.0263H82.5823V9.59915C82.5823 7.24715 81.6031 6.07595 79.6543 6.07595C77.6959 6.07595 76.7263 7.24715 76.7263 9.59915V29.1832C76.7263 31.4967 77.7055 32.6584 79.6543 32.6584C81.6127 32.6584 82.5823 31.4967 82.5823 29.1832V22.1751H79.7503V17.0584H87.9295V28.7703C87.9295 31.6695 87.2095 33.8967 85.7695 35.4423C84.3295 36.9975 82.2367 37.7656 79.4911 37.7656C76.7359 37.7752 74.6527 37.0071 73.2127 35.452Z" fill="#0F1F38"/>
<path d="M91.5684 1.48047H107.005V6.59727H97.2324V16.0533H104.999V21.1605H97.2324V32.1525H107.005V37.2597H91.5684V1.48047Z" fill="#0F1F38"/>
<path d="M111.477 35.452C110.066 33.8968 109.365 31.6792 109.365 28.78V26.7351H114.712V29.1928C114.712 31.5064 115.692 32.6679 117.64 32.6679C118.6 32.6679 119.33 32.3896 119.829 31.8232C120.328 31.2568 120.578 30.3448 120.578 29.0872C120.578 27.5896 120.232 26.2647 119.551 25.1223C118.869 23.9799 117.592 22.6072 115.74 21.004C113.407 18.9592 111.775 17.1063 110.853 15.4551C109.932 13.8039 109.461 11.932 109.461 9.85835C109.461 7.02635 110.181 4.83755 111.621 3.29195C113.061 1.73675 115.154 0.96875 117.9 0.96875C120.607 0.96875 122.661 1.74635 124.044 3.29195C125.436 4.84715 126.127 7.06475 126.127 9.96395V11.4423H120.78V9.59915C120.78 8.37035 120.54 7.47755 120.06 6.91115C119.58 6.34475 118.879 6.06635 117.948 6.06635C116.066 6.06635 115.116 7.20875 115.116 9.49355C115.116 10.7895 115.471 11.9991 116.172 13.1223C116.872 14.2455 118.149 15.6087 120.002 17.2119C122.364 19.2567 123.996 21.1191 124.888 22.7895C125.781 24.4599 126.223 26.4184 126.223 28.6647C126.223 31.5928 125.493 33.8487 124.034 35.4135C122.575 36.9783 120.463 37.7656 117.679 37.7656C114.962 37.7752 112.888 37.0071 111.477 35.452Z" fill="#0F1F38"/>
<path d="M129.488 1.48047H137.821C140.634 1.48047 142.746 2.22927 144.147 3.72687C145.559 5.22447 146.259 7.42287 146.259 10.3221V13.8453C146.259 16.7445 145.559 18.9429 144.147 20.4405C142.736 21.9381 140.634 22.6869 137.821 22.6869H135.143V37.2597H129.488V1.48047ZM137.821 17.5893C138.743 17.5893 139.443 17.3301 139.904 16.8213C140.365 16.3125 140.595 15.4389 140.595 14.2101V9.96687C140.595 8.73807 140.365 7.87407 139.904 7.35567C139.443 6.84687 138.743 6.58767 137.821 6.58767H135.143V17.5797H137.821V17.5893Z" fill="#0F1F38"/>
<path d="M149.34 1.48047H157.673C160.485 1.48047 162.597 2.22927 163.999 3.72687C165.41 5.22447 166.111 7.42287 166.111 10.3221V13.8453C166.111 16.7445 165.41 18.9429 163.999 20.4405C162.588 21.9381 160.485 22.6869 157.673 22.6869H154.994V37.2597H149.34V1.48047ZM157.673 17.5893C158.594 17.5893 159.295 17.3301 159.756 16.8213C160.217 16.3125 160.447 15.4389 160.447 14.2101V9.96687C160.447 8.73807 160.217 7.87407 159.756 7.35567C159.295 6.84687 158.594 6.58767 157.673 6.58767H154.994V17.5797H157.673V17.5893Z" fill="#0F1F38"/>
<path d="M52.7832 40.8516H54.9624V41.5716H53.58V42.906H54.6744V43.626H53.58V45.1812H54.9624V45.9012H52.7832V40.8516Z" fill="#0F1F38"/>
<path d="M55.6062 45.6392C55.4046 45.4184 55.3086 45.1112 55.3086 44.6984V44.4104H56.067V44.756C56.067 45.0824 56.2014 45.2456 56.4798 45.2456C56.6142 45.2456 56.7198 45.2072 56.787 45.1304C56.8542 45.0536 56.8926 44.9192 56.8926 44.7464C56.8926 44.5352 56.8446 44.3528 56.7486 44.1896C56.6526 44.0264 56.4702 43.8344 56.211 43.6136C55.8846 43.3256 55.6542 43.0664 55.5198 42.836C55.3854 42.6056 55.3278 42.3368 55.3278 42.0488C55.3278 41.6456 55.4334 41.3384 55.635 41.1272C55.8366 40.9064 56.1342 40.8008 56.5182 40.8008C56.9022 40.8008 57.1902 40.9064 57.3918 41.1272C57.5838 41.348 57.6894 41.6552 57.6894 42.068V42.2792H56.931V42.02C56.931 41.8472 56.8926 41.7224 56.8254 41.6456C56.7582 41.5688 56.6622 41.5304 56.5278 41.5304C56.259 41.5304 56.1246 41.6936 56.1246 42.0104C56.1246 42.1928 56.1726 42.3656 56.2782 42.5192C56.3742 42.6824 56.5566 42.8744 56.8254 43.0952C57.1614 43.3832 57.3918 43.6424 57.5166 43.8824C57.6414 44.1128 57.7086 44.3912 57.7086 44.708C57.7086 45.1208 57.603 45.4376 57.4014 45.6584C57.1998 45.8792 56.8926 45.9944 56.499 45.9944C56.0958 45.9752 55.8078 45.86 55.6062 45.6392Z" fill="#0F1F38"/>
<path d="M58.3992 45.6467C58.1976 45.4355 58.1016 45.1283 58.1016 44.7347V42.0275C58.1016 41.6339 58.1976 41.3267 58.3992 41.1155C58.6008 40.9043 58.8888 40.7891 59.2728 40.7891C59.6568 40.7891 59.9448 40.8947 60.1464 41.1155C60.348 41.3267 60.4536 41.6339 60.4536 42.0275V42.5651H59.6952V41.9795C59.6952 41.6627 59.5608 41.5091 59.292 41.5091C59.0232 41.5091 58.8888 41.6627 58.8888 41.9795V44.8019C58.8888 45.1091 59.0232 45.2627 59.292 45.2627C59.5608 45.2627 59.6952 45.1091 59.6952 44.8019V44.0339H60.4536V44.7443C60.4536 45.1379 60.348 45.4451 60.1464 45.6563C59.9448 45.8771 59.6568 45.9827 59.2728 45.9827C58.8984 45.9731 58.6008 45.8579 58.3992 45.6467Z" fill="#0F1F38"/>
<path d="M61.2232 45.642C61.0216 45.4212 60.916 45.114 60.916 44.7012V40.8516H61.7128V44.7588C61.7128 44.9316 61.7416 45.0564 61.8184 45.1332C61.8856 45.21 61.9912 45.2484 62.1256 45.2484C62.26 45.2484 62.356 45.21 62.4232 45.1332C62.4904 45.0564 62.5288 44.9316 62.5288 44.7588V40.8516H63.2968V44.7012C63.2968 45.114 63.1912 45.4212 62.9896 45.642C62.788 45.8628 62.4904 45.9684 62.0968 45.9684C61.7224 45.978 61.4248 45.8628 61.2232 45.642Z" fill="#0F1F38"/>
<path d="M63.8711 40.8516H66.0599V41.5716H64.6775V42.906H65.7815V43.626H64.6775V45.1812H66.0599V45.9012H63.8711V40.8516Z" fill="#0F1F38"/>
<path d="M66.5096 40.8516H67.3064V45.1812H68.6216V45.9012H66.5V40.8516H66.5096Z" fill="#0F1F38"/>
<path d="M69.6615 40.8516H70.7463L71.5719 45.9012H70.7751L70.6311 44.9028V44.9124H69.7191L69.5751 45.9012H68.8359L69.6615 40.8516ZM70.5351 44.2308L70.1799 41.7348H70.1703L69.8247 44.2308H70.5351Z" fill="#0F1F38"/>
<path d="M73.125 40.8516H74.3442C74.7378 40.8516 75.045 40.9572 75.237 41.1684C75.4386 41.3796 75.5346 41.6868 75.5346 42.0996V44.6532C75.5346 45.066 75.4386 45.3732 75.237 45.5844C75.0354 45.7956 74.7378 45.9012 74.3442 45.9012H73.125V40.8516ZM74.3346 45.1812C74.469 45.1812 74.565 45.1428 74.6322 45.066C74.6994 44.9892 74.7378 44.8644 74.7378 44.6916V42.0708C74.7378 41.898 74.6994 41.7732 74.6322 41.6964C74.565 41.6196 74.4594 41.5812 74.3346 41.5812H73.9314V45.1812H74.3346Z" fill="#0F1F38"/>
<path d="M76.082 40.8516H78.2708V41.5716H76.8884V42.906H77.9924V43.626H76.8884V45.1812H78.2708V45.9012H76.082V40.8516Z" fill="#0F1F38"/>
<path d="M80.1334 45.6389C79.9318 45.4181 79.8262 45.1109 79.8262 44.6981V42.0484C79.8262 41.6356 79.9318 41.3285 80.1334 41.1077C80.335 40.8869 80.6326 40.7812 81.0262 40.7812C81.4198 40.7812 81.7078 40.8869 81.919 41.1077C82.1206 41.3285 82.2262 41.6356 82.2262 42.0484V42.4805H81.4678V42.0005C81.4678 41.6741 81.3238 41.5013 81.055 41.5013C80.7766 41.5013 80.6422 41.6645 80.6422 42.0005V44.7653C80.6422 45.0917 80.7862 45.2548 81.055 45.2548C81.3334 45.2548 81.4678 45.0917 81.4678 44.7653V43.7765H81.0646V43.0565H82.2166V44.7077C82.2166 45.1205 82.111 45.4276 81.9094 45.6484C81.7078 45.8692 81.4102 45.9748 81.0166 45.9748C80.623 45.9748 80.335 45.8597 80.1334 45.6389Z" fill="#0F1F38"/>
<path d="M82.7344 40.8516H84.9232V41.5716H83.5408V42.906H84.6448V43.626H83.5408V45.1812H84.9232V45.9012H82.7344V40.8516Z" fill="#0F1F38"/>
<path d="M85.5476 45.6392C85.346 45.4184 85.25 45.1112 85.25 44.6984V44.4104H86.0084V44.756C86.0084 45.0824 86.1428 45.2456 86.4212 45.2456C86.5556 45.2456 86.6612 45.2072 86.7284 45.1304C86.7956 45.0536 86.834 44.9192 86.834 44.7464C86.834 44.5352 86.786 44.3528 86.69 44.1896C86.594 44.0264 86.4116 43.8344 86.1524 43.6136C85.8164 43.3256 85.5956 43.0664 85.4612 42.836C85.3268 42.6056 85.2692 42.3368 85.2692 42.0488C85.2692 41.6456 85.3748 41.3384 85.5764 41.1272C85.778 40.9064 86.0756 40.8008 86.4692 40.8008C86.8532 40.8008 87.1412 40.9064 87.3428 41.1272C87.5348 41.348 87.6404 41.6552 87.6404 42.068V42.2792H86.882V42.02C86.882 41.8472 86.8436 41.7224 86.7764 41.6456C86.7092 41.5688 86.6036 41.5304 86.4788 41.5304C86.21 41.5304 86.0756 41.6936 86.0756 42.0104C86.0756 42.1928 86.1236 42.3656 86.2292 42.5192C86.3252 42.6824 86.5076 42.8744 86.7668 43.0952C87.1028 43.3832 87.3332 43.6424 87.458 43.8824C87.5828 44.1128 87.65 44.3912 87.65 44.708C87.65 45.1208 87.5444 45.4376 87.3428 45.6584C87.1412 45.8792 86.834 45.9944 86.4404 45.9944C86.0468 45.9752 85.7492 45.86 85.5476 45.6392Z" fill="#0F1F38"/>
<path d="M88.7258 41.5716H87.8906V40.8516H90.3674V41.5716H89.5322V45.9012H88.7354V41.5716H88.7258Z" fill="#0F1F38"/>
<path d="M90.752 40.8516H91.5488V45.9012H90.752V40.8516Z" fill="#0F1F38"/>
<path d="M92.4027 45.6395C92.1915 45.4187 92.0859 45.1115 92.0859 44.6987V42.0491C92.0859 41.6459 92.1915 41.3291 92.4027 41.1083C92.6139 40.8875 92.9115 40.7819 93.3051 40.7819C93.6987 40.7819 93.9963 40.8875 94.2075 41.1083C94.4187 41.3291 94.5243 41.6459 94.5243 42.0491V44.6987C94.5243 45.1019 94.4187 45.4187 94.2075 45.6395C93.9963 45.8603 93.6987 45.9755 93.3051 45.9755C92.9115 45.9755 92.6139 45.8603 92.4027 45.6395ZM93.3723 39.6875H94.2459L93.4683 40.5131H92.8635L93.3723 39.6875ZM93.7179 44.7563V42.0011C93.7179 41.6747 93.5739 41.5019 93.3051 41.5019C93.0267 41.5019 92.8923 41.6651 92.8923 42.0011V44.7563C92.8923 45.0827 93.0363 45.2555 93.3051 45.2555C93.5739 45.2555 93.7179 45.0827 93.7179 44.7563Z" fill="#0F1F38"/>
<path d="M95.0605 40.8516H96.0685L96.8461 43.8756H96.8557V40.8516H97.5661V45.9012H96.7405L95.7805 42.2148H95.771V45.9012H95.0605V40.8516Z" fill="#0F1F38"/>
<path d="M99.334 40.8516H100.515C100.908 40.8516 101.206 40.9572 101.408 41.1684C101.609 41.3796 101.705 41.6868 101.705 42.0996V42.5988C101.705 43.0116 101.609 43.3188 101.408 43.53C101.206 43.7412 100.908 43.8468 100.515 43.8468H100.14V45.9012H99.3436V40.8516H99.334ZM100.505 43.1268C100.64 43.1268 100.736 43.0884 100.803 43.0212C100.87 42.954 100.899 42.8292 100.899 42.6564V42.0612C100.899 41.8884 100.87 41.7636 100.803 41.6964C100.736 41.6292 100.64 41.5908 100.505 41.5908H100.131V43.1364H100.505V43.1268Z" fill="#0F1F38"/>
<path d="M102.417 45.6395C102.215 45.4187 102.109 45.1115 102.109 44.6987V40.8491H102.906V44.7563C102.906 44.9291 102.935 45.0539 103.012 45.1307C103.079 45.2075 103.185 45.2459 103.319 45.2459C103.453 45.2459 103.549 45.2075 103.617 45.1307C103.684 45.0539 103.722 44.9291 103.722 44.7563V40.8491H104.49V44.6987C104.49 45.1115 104.385 45.4187 104.183 45.6395C103.981 45.8603 103.684 45.9659 103.29 45.9659C102.916 45.9755 102.618 45.8603 102.417 45.6395ZM103.377 39.6875H104.25L103.473 40.5131H102.868L103.377 39.6875Z" fill="#0F1F38"/>
<path d="M105.066 40.8516H106.276C106.689 40.8516 106.986 40.9476 107.178 41.1396C107.37 41.3316 107.466 41.6196 107.466 42.0132V42.2148C107.466 42.474 107.428 42.6852 107.342 42.8484C107.255 43.0116 107.13 43.1268 106.958 43.2036V43.2132C107.351 43.3476 107.553 43.7028 107.553 44.2692V44.7012C107.553 45.0948 107.447 45.3828 107.246 45.594C107.044 45.8052 106.737 45.9012 106.334 45.9012H105.076V40.8516H105.066ZM106.18 42.906C106.343 42.906 106.458 42.8676 106.545 42.7812C106.622 42.6948 106.67 42.5604 106.67 42.3684V42.09C106.67 41.9076 106.641 41.7732 106.574 41.6964C106.506 41.61 106.401 41.5716 106.266 41.5716H105.882V42.906H106.18ZM106.324 45.1812C106.468 45.1812 106.574 45.1428 106.641 45.066C106.708 44.9892 106.746 44.8644 106.746 44.682V44.2404C106.746 44.01 106.708 43.8468 106.622 43.7604C106.535 43.674 106.41 43.626 106.228 43.626H105.873V45.1812H106.324Z" fill="#0F1F38"/>
<path d="M108.002 40.8516H108.799V45.1812H110.114V45.9012H107.992V40.8516H108.002Z" fill="#0F1F38"/>
<path d="M110.51 40.8516H111.307V45.9012H110.51V40.8516Z" fill="#0F1F38"/>
<path d="M112.159 45.6467C111.957 45.4355 111.852 45.1283 111.852 44.7347V42.0275C111.852 41.6339 111.957 41.3267 112.159 41.1155C112.36 40.9043 112.648 40.7891 113.032 40.7891C113.416 40.7891 113.704 40.8947 113.906 41.1155C114.108 41.3267 114.213 41.6339 114.213 42.0275V42.5651H113.455V41.9795C113.455 41.6627 113.32 41.5091 113.052 41.5091C112.783 41.5091 112.648 41.6627 112.648 41.9795V44.8019C112.648 45.1091 112.783 45.2627 113.052 45.2627C113.32 45.2627 113.455 45.1091 113.455 44.8019V44.0339H114.213V44.7443C114.213 45.1379 114.108 45.4451 113.906 45.6563C113.704 45.8771 113.416 45.9827 113.032 45.9827C112.648 45.9827 112.36 45.8579 112.159 45.6467Z" fill="#0F1F38"/>
<path d="M115.318 40.8516H116.403L117.228 45.9012H116.431L116.287 44.9028V44.9124H115.375L115.231 45.9012H114.492L115.318 40.8516ZM116.191 44.2308L115.836 41.7348H115.817L115.471 44.2308H116.191Z" fill="#0F1F38"/>
<path d="M119.513 43.7508L118.543 40.8516H119.397L119.945 42.7044H119.964L120.511 40.8516H121.289L120.319 43.7508V45.9012H119.522V43.7508H119.513Z" fill="#0F1F38"/>
<path d="M122.814 40.8516H123.822L124.6 43.8756H124.61V40.8516H125.32V45.9012H124.494L123.534 42.2148H123.525V45.9012H122.814V40.8516Z" fill="#0F1F38"/>
<path d="M125.916 40.8516H128.105V41.5716H126.722V42.906H127.826V43.626H126.722V45.1812H128.105V45.9012H125.916V40.8516Z" fill="#0F1F38"/>
<path d="M128.805 45.6389C128.604 45.4181 128.498 45.1109 128.498 44.6981V42.0484C128.498 41.6356 128.604 41.3285 128.805 41.1077C129.007 40.8869 129.304 40.7812 129.698 40.7812C130.092 40.7812 130.38 40.8869 130.591 41.1077C130.792 41.3285 130.898 41.6356 130.898 42.0484V42.4805H130.14V42.0005C130.14 41.6741 129.996 41.5013 129.727 41.5013C129.448 41.5013 129.314 41.6645 129.314 42.0005V44.7653C129.314 45.0917 129.458 45.2548 129.727 45.2548C130.005 45.2548 130.14 45.0917 130.14 44.7653V43.7765H129.736V43.0565H130.888V44.7077C130.888 45.1205 130.783 45.4276 130.581 45.6484C130.38 45.8692 130.082 45.9748 129.688 45.9748C129.295 45.9748 129.016 45.8597 128.805 45.6389Z" fill="#0F1F38"/>
<path d="M131.657 45.6389C131.445 45.4181 131.34 45.1109 131.34 44.6981V42.0484C131.34 41.6452 131.445 41.3285 131.657 41.1077C131.868 40.8869 132.165 40.7812 132.559 40.7812C132.953 40.7812 133.25 40.8869 133.461 41.1077C133.673 41.3285 133.778 41.6452 133.778 42.0484V44.6981C133.778 45.1013 133.673 45.4181 133.461 45.6389C133.25 45.8597 132.953 45.9748 132.559 45.9748C132.175 45.9748 131.868 45.8597 131.657 45.6389ZM132.981 44.7557V42.0005C132.981 41.6741 132.837 41.5013 132.569 41.5013C132.29 41.5013 132.156 41.6645 132.156 42.0005V44.7557C132.156 45.0821 132.3 45.2548 132.569 45.2548C132.837 45.2548 132.981 45.0821 132.981 44.7557Z" fill="#0F1F38"/>
<path d="M134.577 45.6467C134.375 45.4355 134.27 45.1283 134.27 44.7347V42.0275C134.27 41.6339 134.375 41.3267 134.577 41.1155C134.778 40.9043 135.066 40.7891 135.45 40.7891C135.834 40.7891 136.122 40.8947 136.324 41.1155C136.526 41.3267 136.631 41.6339 136.631 42.0275V42.5651H135.873V41.9795C135.873 41.6627 135.738 41.5091 135.47 41.5091C135.201 41.5091 135.066 41.6627 135.066 41.9795V44.8019C135.066 45.1091 135.201 45.2627 135.47 45.2627C135.738 45.2627 135.873 45.1091 135.873 44.8019V44.0339H136.631V44.7443C136.631 45.1379 136.526 45.4451 136.324 45.6563C136.122 45.8771 135.834 45.9827 135.45 45.9827C135.066 45.9731 134.778 45.8579 134.577 45.6467Z" fill="#0F1F38"/>
<path d="M137.109 40.8516H137.906V45.9012H137.109V40.8516Z" fill="#0F1F38"/>
<path d="M138.762 45.6389C138.551 45.4181 138.445 45.1109 138.445 44.6981V42.0484C138.445 41.6452 138.551 41.3285 138.762 41.1077C138.973 40.8869 139.271 40.7812 139.665 40.7812C140.058 40.7812 140.356 40.8869 140.567 41.1077C140.778 41.3285 140.884 41.6452 140.884 42.0484V44.6981C140.884 45.1013 140.778 45.4181 140.567 45.6389C140.356 45.8597 140.058 45.9748 139.665 45.9748C139.271 45.9748 138.973 45.8597 138.762 45.6389ZM140.077 44.7557V42.0005C140.077 41.6741 139.933 41.5013 139.665 41.5013C139.386 41.5013 139.252 41.6645 139.252 42.0005V44.7557C139.252 45.0821 139.396 45.2548 139.665 45.2548C139.943 45.2548 140.077 45.0821 140.077 44.7557Z" fill="#0F1F38"/>
<path d="M141.573 45.6392C141.371 45.4184 141.275 45.1112 141.275 44.6984V44.4104H142.034V44.756C142.034 45.0824 142.168 45.2456 142.447 45.2456C142.581 45.2456 142.687 45.2072 142.754 45.1304C142.821 45.0536 142.859 44.9192 142.859 44.7464C142.859 44.5352 142.811 44.3528 142.715 44.1896C142.619 44.0264 142.437 43.8344 142.178 43.6136C141.842 43.3256 141.621 43.0664 141.487 42.836C141.352 42.6056 141.295 42.3368 141.295 42.0488C141.295 41.6456 141.4 41.3384 141.602 41.1272C141.803 40.9064 142.101 40.8008 142.495 40.8008C142.879 40.8008 143.167 40.9064 143.368 41.1272C143.56 41.348 143.666 41.6552 143.666 42.068V42.2792H142.907V42.02C142.907 41.8472 142.869 41.7224 142.802 41.6456C142.735 41.5688 142.629 41.5304 142.504 41.5304C142.235 41.5304 142.101 41.6936 142.101 42.0104C142.101 42.1928 142.149 42.3656 142.255 42.5192C142.351 42.6824 142.533 42.8744 142.792 43.0952C143.128 43.3832 143.359 43.6424 143.483 43.8824C143.608 44.1128 143.675 44.3912 143.675 44.708C143.675 45.1208 143.57 45.4376 143.368 45.6584C143.167 45.8792 142.859 45.9944 142.466 45.9944C142.072 45.9752 141.775 45.86 141.573 45.6392Z" fill="#0F1F38"/>
<path d="M145.289 40.8516H146.508C146.902 40.8516 147.209 40.9572 147.401 41.1684C147.603 41.3796 147.699 41.6868 147.699 42.0996V44.6532C147.699 45.066 147.603 45.3732 147.401 45.5844C147.199 45.7956 146.902 45.9012 146.508 45.9012H145.289V40.8516ZM146.499 45.1812C146.633 45.1812 146.729 45.1428 146.796 45.066C146.863 44.9892 146.902 44.8644 146.902 44.6916V42.0708C146.902 41.898 146.863 41.7732 146.796 41.6964C146.729 41.6196 146.623 41.5812 146.499 41.5812H146.095V45.1812H146.499Z" fill="#0F1F38"/>
<path d="M148.244 40.8516H150.433V41.5716H149.051V42.906H150.155V43.626H149.051V45.1812H150.433V45.9012H148.244V40.8516Z" fill="#0F1F38"/>
<path d="M150.885 40.8516H151.681V45.1812H152.997V45.9012H150.875V40.8516H150.885Z" fill="#0F1F38"/>
<path d="M154.553 40.8516H155.734C156.127 40.8516 156.425 40.9572 156.626 41.1684C156.828 41.3796 156.924 41.6868 156.924 42.0996V42.5988C156.924 43.0116 156.828 43.3188 156.626 43.53C156.425 43.7412 156.127 43.8468 155.734 43.8468H155.359V45.9012H154.562V40.8516H154.553ZM155.734 43.1268C155.868 43.1268 155.964 43.0884 156.031 43.0212C156.098 42.954 156.127 42.8292 156.127 42.6564V42.0612C156.127 41.8884 156.098 41.7636 156.031 41.6964C155.964 41.6292 155.868 41.5908 155.734 41.5908H155.359V43.1364H155.734V43.1268Z" fill="#0F1F38"/>
<path d="M157.365 40.8516H159.554V41.5716H158.172V42.906H159.276V43.626H158.172V45.1812H159.554V45.9012H157.365V40.8516Z" fill="#0F1F38"/>
<path d="M160.006 40.8516H161.196C161.609 40.8516 161.907 40.9476 162.099 41.1396C162.281 41.3316 162.377 41.6196 162.377 42.0132V42.3204C162.377 42.8484 162.204 43.1748 161.849 43.3188V43.3284C162.041 43.386 162.185 43.5012 162.262 43.6836C162.339 43.866 162.377 44.0964 162.377 44.394V45.2772C162.377 45.4212 162.387 45.5364 162.396 45.6228C162.406 45.7092 162.425 45.7956 162.463 45.882H161.647C161.619 45.7956 161.599 45.7188 161.59 45.6516C161.58 45.5748 161.58 45.45 161.58 45.258V44.3364C161.58 44.106 161.542 43.9428 161.465 43.8564C161.388 43.7604 161.263 43.722 161.081 43.722H160.803V45.882H160.006V40.8516ZM161.1 43.0212C161.263 43.0212 161.379 42.9828 161.465 42.8964C161.542 42.81 161.59 42.6756 161.59 42.4836V42.09C161.59 41.9076 161.561 41.7732 161.494 41.6964C161.427 41.61 161.321 41.5716 161.187 41.5716H160.822V43.0116H161.1V43.0212Z" fill="#0F1F38"/>
<path d="M163.223 45.6395C163.022 45.4187 162.916 45.1115 162.916 44.6987V40.8491H163.713V44.7563C163.713 44.9291 163.742 45.0539 163.818 45.1307C163.886 45.2075 163.991 45.2459 164.126 45.2459C164.26 45.2459 164.356 45.2075 164.423 45.1307C164.49 45.0539 164.529 44.9291 164.529 44.7563V40.8491H165.297V44.6987C165.297 45.1115 165.191 45.4187 164.99 45.6395C164.788 45.8603 164.49 45.9659 164.097 45.9659C163.722 45.9755 163.425 45.8603 163.223 45.6395ZM164.183 39.6875H165.057L164.279 40.5131H163.674L164.183 39.6875Z" fill="#0F1F38"/>
<defs>
<clipPath id="clip0_195_36270">
<rect width="45.1026" height="45.12" fill="white" transform="translate(0 0.921875)"/>
</clipPath>
</defs>
</svg>
