<svg width="765" height="96" viewBox="0 0 765 96" fill="none" xmlns="http://www.w3.org/2000/svg">
<g clip-path="url(#clip0_360_19710)">
<g clip-path="url(#clip1_360_19710)">
<path d="M80.2179 74.8405C79.8863 74.7183 79.3453 74.4565 79.7118 73.8807C79.9561 73.4793 79.7118 73.1826 79.5373 72.8685C79.3104 72.502 79.0487 72.1704 78.8393 71.804C78.56 71.3328 78.1761 71.1757 77.6351 71.1583C76.2914 71.1059 74.9476 71.0187 73.6039 70.914C73.2723 70.8965 73.0978 70.7046 73.3596 70.373C73.6039 70.0589 73.8657 69.7622 74.1274 69.483C74.9302 68.593 74.9651 68.1392 74.3718 67.4237C73.8133 66.7606 73.22 66.1498 72.6092 65.5565C72.3998 65.347 72.2078 65.1725 72.3649 64.8235C72.4521 64.6315 72.3998 64.4047 72.1206 64.3C71.789 64.1604 71.4749 63.9335 71.1433 63.759C70.707 63.5321 70.4278 63.2529 70.2882 62.7468C70.0788 62.0488 69.9566 61.2984 69.4331 60.7399C69.2237 60.5131 69.2062 60.3909 69.4331 60.164C69.7821 59.8325 69.7646 59.5707 69.276 59.3264C68.7874 59.0821 68.4035 58.6632 67.9148 58.4189C67.5658 58.2444 67.688 58.0699 67.7927 57.8605C68.037 57.4242 68.5082 57.337 68.927 57.1973C69.4331 57.0228 69.6599 56.8134 69.4331 56.2375C68.9619 55.1032 69.1888 53.4802 70.3754 52.7473C70.8641 52.4332 71.1956 51.8573 71.9111 51.8922C72.8361 51.9271 73.5341 50.9673 73.2898 50.0424C73.1327 49.4839 72.9582 48.9255 72.7488 48.3845C72.5394 47.8435 72.5568 47.4247 73.0455 47.0408C73.4817 46.6917 73.8482 46.2555 74.2496 45.8541C74.3718 45.7319 74.4765 45.6272 74.5288 45.4178C74.7906 44.4405 75.0698 43.4807 75.3665 42.5209C75.4537 42.2591 75.5933 42.0497 75.8551 41.8927C77.513 40.8979 79.1359 39.8858 80.7763 38.8911C81.3697 38.5246 81.9281 38.0185 82.5913 37.844C83.586 37.5822 84.6505 37.5822 85.6801 37.4426C86.6574 37.303 87.5997 37.1285 88.4199 36.5352C89.5543 40.4791 90.2 44.65 90.2 48.9604C90.2 58.8029 87.0064 67.8775 81.6663 75.2942C81.1777 75.172 80.6891 75.015 80.2179 74.8405Z" fill="#CF072C"/>
<path d="M-0.00390625 48.9511C-0.00390625 24.0483 20.1871 3.83984 45.0899 3.83984C60.1503 3.83984 73.4481 11.2566 81.6501 22.5999C81.0568 23.2455 80.2889 23.612 79.6607 24.1356C79.6083 24.1705 79.5036 24.1705 79.4338 24.1705C78.4915 24.1356 77.5491 24.345 76.6067 24.1705C75.6469 23.9785 74.7046 23.612 74.2683 22.722C73.8844 21.9193 73.4132 21.2038 72.9769 20.4534C72.6628 19.9124 72.2963 19.6332 71.6157 19.703C70.6908 19.7728 70.4639 19.3888 70.7606 18.4639C71.0398 17.6263 70.8653 16.998 70.0974 16.6141C69.2598 16.1953 68.4396 15.7939 67.6543 15.2878C67.0958 14.9213 66.4327 14.6945 65.8045 14.4153C65.5776 14.3105 65.438 14.1709 65.4729 13.8743C65.5252 13.5078 65.4729 13.1588 65.1413 12.9145C65.0366 12.8446 64.9843 12.7399 65.0017 12.6003C65.1413 11.7976 64.6003 11.4486 64.0419 10.9948C63.4486 10.5062 62.5062 10.2968 62.4015 9.31951C62.3491 8.83088 62.1746 8.79598 61.7383 8.98794C61.3893 9.12755 61.0577 9.51147 60.6389 9.35441C59.7489 9.04029 58.8589 8.69127 57.9689 8.34225C57.7246 8.25499 57.393 7.97577 57.2185 8.15028C57.0091 8.3597 57.1138 8.76107 57.1661 9.07519C57.201 9.23226 57.393 9.38932 57.5326 9.52892C58.283 10.2619 58.8065 11.0646 58.7367 12.2164C58.7018 12.7225 58.7367 13.2809 58.8938 13.787C59.016 14.2058 58.9461 14.4327 58.4575 14.3804C58.091 14.328 57.9514 14.4327 57.8293 14.869C57.585 15.6717 57.3581 16.4919 56.9916 17.2772C56.3983 18.5163 55.5955 19.5633 54.6706 20.5755C53.6061 21.7622 52.559 22.9489 51.3723 24.0308C51.0931 24.2926 50.7965 24.6067 50.3776 24.7463C48.8943 25.2175 47.4109 25.6364 45.9799 26.2122C44.3046 26.8928 42.3675 26.9452 41.0063 28.3587C40.4479 28.9521 39.5579 29.2836 39.4532 30.2435C39.4183 30.5401 39.3485 30.8194 39.2787 31.0986C38.8773 30.9066 38.4759 30.7146 38.0396 30.5052C37.9 31.0288 38.092 31.4825 37.8826 31.9362C37.0624 33.6813 36.469 35.4963 36.1549 37.4159C36.0677 37.9569 35.963 38.62 35.1253 38.4979C34.9857 38.4804 34.9508 38.62 34.8635 38.6898C34.2353 39.2483 34.1306 39.9114 34.4447 40.6618C34.5669 40.9585 34.3749 40.9236 34.2353 40.8887C33.5372 40.6967 32.8217 40.7665 32.1237 40.6793C31.8445 40.6444 31.7223 40.5397 31.6176 40.3128C31.2337 39.5275 30.8149 38.7596 30.4484 37.9569C30.3088 37.6602 30.1692 37.5381 29.8201 37.5032C29.0523 37.4333 28.2495 37.4682 27.6038 36.9098C27.4119 36.7353 27.2025 36.5957 26.9582 36.5259C26.5917 36.4037 26.2601 36.3165 25.9285 36.6655C25.6842 36.9098 25.3875 37.1018 25.0909 37.2937C24.9862 37.3635 24.9513 37.5904 24.7768 37.4508C24.6546 37.3461 24.5324 37.2065 24.6197 37.0145C24.672 36.9098 24.6022 36.7527 24.6546 36.6655C25.1083 35.9849 24.864 35.601 24.1311 35.409C24.1136 35.409 24.0962 35.3741 24.0787 35.3741C23.6075 35.1996 23.7646 34.9553 24.0264 34.7284C24.4277 34.3794 24.8815 34.2398 25.4224 34.2747C26.0332 34.327 26.5742 33.5592 26.295 33.0356C25.9111 32.3202 25.754 31.5698 25.7191 30.7844C25.7017 30.6099 25.6493 30.5227 25.4748 30.5401C25.1432 30.5576 24.7419 30.4005 24.6197 30.9241C24.5848 31.0986 24.4277 31.1509 24.2532 31.1509C23.8693 31.1335 23.4156 31.0288 23.5377 31.7094C23.5726 31.9188 23.2934 31.9188 23.1538 31.9886C22.7001 32.2154 22.0893 32.2678 21.8275 32.7215C21.2691 33.6988 20.3791 34.3794 19.681 35.217C19.2971 35.6708 18.791 36.0373 18.791 36.8051C18.791 37.4508 18.8259 38.2012 18.3547 38.7596C18.2151 38.9167 18.3547 38.9865 18.4245 39.0912C18.791 39.6496 19.3145 40.051 19.7508 40.5397C20.0649 40.8712 20.0649 41.5344 19.7683 41.6042C19.524 41.6565 19.14 41.6391 19.2273 41.9532C19.332 42.3895 19.1575 42.9828 19.6985 43.2446C20.7979 43.7681 21.2167 44.693 21.3563 45.8274C21.3738 46.0368 21.4436 46.3334 21.1818 46.4032C20.955 46.473 20.6757 46.6825 20.4663 46.3334C20.414 46.2462 20.3267 46.1589 20.1696 46.2462C19.8206 46.4556 19.5938 47.9389 19.9253 48.1658C20.92 48.8464 21.7752 49.7364 22.8746 50.2774C24.0438 50.8533 25.1956 51.4641 26.3474 52.0749C26.6091 52.2145 26.8185 52.3541 27.0105 52.5984C27.6911 53.5582 28.4066 54.4831 29.1046 55.4255C29.349 55.7571 29.8027 56.0363 29.7852 56.4726C29.7503 57.0659 29.9772 57.5371 30.239 58.0257C30.3786 58.27 30.6403 58.5493 30.6229 58.7936C30.5531 59.4218 31.0068 59.6487 31.3733 59.9279C31.5478 60.0675 31.7223 60.2071 31.8445 60.3816C32.5774 61.3938 33.3104 62.406 34.0608 63.4007C34.1655 63.5403 34.3051 63.6625 34.2702 63.8719C34.1655 64.378 34.4971 64.6572 34.8635 64.884C35.3173 65.1633 35.5616 65.4948 35.4918 66.0533C35.4394 66.3848 35.4918 66.6815 35.771 66.9782C36.1375 67.3447 36.4865 67.7809 36.3294 68.3917C36.2596 68.6884 36.5388 68.7233 36.6785 68.7931C37.0798 68.9851 37.2543 69.3341 37.394 69.6831C37.8128 70.8349 38.284 71.9518 38.8424 73.0512C38.9646 73.3129 39.1216 73.6096 39.1042 73.8714C39.0518 74.6567 39.2961 75.3024 39.6975 75.983C40.5003 77.3093 41.2856 78.653 41.9662 80.0491C42.5071 81.1485 43.467 82.1083 43.2226 83.5044C43.1877 83.6615 43.2924 83.7662 43.4321 83.8186C44.4093 84.2025 44.9329 85.1099 45.6833 85.7382C45.8752 85.8952 45.8927 86.1221 45.9625 86.2966C46.1021 86.7503 46.1195 87.2215 46.2591 87.6753C46.3988 88.1464 46.3464 88.6874 46.6605 89.1237C47.1317 89.7694 47.7076 90.3104 48.3009 90.8688C48.5627 91.1131 48.7372 91.3924 48.7721 91.7239C48.807 92.073 49.0164 92.2824 49.2084 92.5267C49.5225 92.9455 49.8715 93.3469 50.1682 93.7832C48.5278 93.9577 46.8525 94.0798 45.1597 94.0798C20.2045 94.0449 -0.00390625 73.8539 -0.00390625 48.9511Z" fill="#CF072C"/>
</g>
<path d="M105.561 4.96875H136.434V15.2024H116.889V34.1144H132.421V44.3288H116.889V66.3128H136.434V76.5272H105.561V4.96875Z" fill="#CF072C"/>
<path d="M146.42 72.9078C143.54 69.7974 142.1 65.3622 142.1 59.5638V21.9318C142.1 16.1334 143.54 11.6982 146.42 8.5878C149.3 5.4774 153.485 3.94141 158.976 3.94141C164.468 3.94141 168.653 5.4966 171.533 8.5878C174.413 11.6982 175.853 16.1334 175.853 21.9318V28.0566H165.159V21.2022C165.159 16.4982 163.2 14.1558 159.303 14.1558C155.386 14.1558 153.447 16.4982 153.447 21.2022V60.3702C153.447 64.9974 155.405 67.3206 159.303 67.3206C163.22 67.3206 165.159 64.9974 165.159 60.3702V46.3542H159.495V36.1206H175.853V59.5446C175.853 65.343 174.413 69.7974 171.533 72.8886C168.653 75.999 164.468 77.535 158.976 77.535C153.466 77.5542 149.3 76.0182 146.42 72.9078Z" fill="#CF072C"/>
<path d="M183.129 4.96875H214.003V15.2024H194.457V34.1144H209.99V44.3288H194.457V66.3128H214.003V76.5272H183.129V4.96875Z" fill="#CF072C"/>
<path d="M222.951 72.9078C220.128 69.7974 218.727 65.3622 218.727 59.5638V55.4742H229.421V60.3894C229.421 65.0166 231.379 67.3398 235.277 67.3398C237.197 67.3398 238.656 66.783 239.655 65.6502C240.653 64.5174 241.152 62.6934 241.152 60.1782C241.152 57.183 240.461 54.5334 239.098 52.2486C237.735 49.9638 235.181 47.2182 231.475 44.0118C226.81 39.9222 223.546 36.2166 221.703 32.9142C219.859 29.6118 218.919 25.8678 218.919 21.7206C218.919 16.0566 220.359 11.679 223.239 8.5878C226.119 5.4774 230.304 3.94141 235.795 3.94141C241.21 3.94141 245.319 5.4966 248.083 8.5878C250.867 11.6982 252.25 16.1334 252.25 21.9318V24.8886H241.555V21.2022C241.555 18.7446 241.075 16.959 240.115 15.8262C239.155 14.6934 237.754 14.1366 235.891 14.1366C232.128 14.1366 230.227 16.4214 230.227 20.991C230.227 23.583 230.938 26.0022 232.339 28.2486C233.741 30.495 236.295 33.2214 240 36.4278C244.723 40.5174 247.987 44.2422 249.773 47.583C251.559 50.9238 252.442 54.8406 252.442 59.3334C252.442 65.1894 250.983 69.7014 248.064 72.831C245.146 75.9606 240.922 77.535 235.354 77.535C229.92 77.5542 225.773 76.0182 222.951 72.9078Z" fill="#CF072C"/>
<path d="M258.971 4.96875H275.636C281.262 4.96875 285.486 6.46636 288.289 9.46156C291.112 12.4568 292.513 16.8536 292.513 22.652V29.6983C292.513 35.4967 291.112 39.8936 288.289 42.8888C285.467 45.884 281.262 47.3816 275.636 47.3816H270.28V76.5272H258.971V4.96875ZM275.636 37.1864C277.479 37.1864 278.881 36.668 279.803 35.6504C280.724 34.6328 281.185 32.8856 281.185 30.428V21.9416C281.185 19.484 280.724 17.756 279.803 16.7192C278.881 15.7016 277.479 15.1832 275.636 15.1832H270.28V37.1672H275.636V37.1864Z" fill="#CF072C"/>
<path d="M298.674 4.96875H315.339C320.965 4.96875 325.189 6.46636 327.992 9.46156C330.815 12.4568 332.216 16.8536 332.216 22.652V29.6983C332.216 35.4967 330.815 39.8936 327.992 42.8888C325.17 45.884 320.965 47.3816 315.339 47.3816H309.983V76.5272H298.674V4.96875ZM315.339 37.1864C317.183 37.1864 318.584 36.668 319.506 35.6504C320.427 34.6328 320.888 32.8856 320.888 30.428V21.9416C320.888 19.484 320.427 17.756 319.506 16.7192C318.584 15.7016 317.183 15.1832 315.339 15.1832H309.983V37.1672H315.339V37.1864Z" fill="#CF072C"/>
<path d="M105.561 83.6992H109.919V85.1392H107.154V87.808H109.343V89.248H107.154V92.3584H109.919V93.7984H105.561V83.6992Z" fill="#CF072C"/>
<path d="M111.207 93.2784C110.803 92.8368 110.611 92.2224 110.611 91.3968V90.8208H112.128V91.512C112.128 92.1648 112.397 92.4912 112.954 92.4912C113.223 92.4912 113.434 92.4144 113.568 92.2608C113.703 92.1072 113.779 91.8383 113.779 91.4927C113.779 91.0703 113.683 90.7056 113.491 90.3792C113.299 90.0528 112.935 89.6688 112.416 89.2272C111.763 88.6512 111.303 88.1328 111.034 87.672C110.765 87.2112 110.65 86.6736 110.65 86.0976C110.65 85.2912 110.861 84.6768 111.264 84.2544C111.667 83.8128 112.263 83.6016 113.031 83.6016C113.799 83.6016 114.375 83.8128 114.778 84.2544C115.162 84.696 115.373 85.3104 115.373 86.136V86.5584H113.856V86.04C113.856 85.6944 113.779 85.4448 113.645 85.2912C113.511 85.1376 113.319 85.0608 113.05 85.0608C112.512 85.0608 112.243 85.3872 112.243 86.0208C112.243 86.3856 112.339 86.7312 112.551 87.0384C112.743 87.3648 113.107 87.7488 113.645 88.1904C114.317 88.7664 114.778 89.2848 115.027 89.7648C115.277 90.2256 115.411 90.7824 115.411 91.416C115.411 92.2416 115.2 92.8752 114.797 93.3168C114.394 93.7584 113.779 93.9888 112.992 93.9888C112.186 93.9504 111.61 93.72 111.207 93.2784Z" fill="#CF072C"/>
<path d="M116.794 93.2933C116.391 92.8709 116.199 92.2565 116.199 91.4693V86.0549C116.199 85.2677 116.391 84.6533 116.794 84.2309C117.198 83.8085 117.774 83.5781 118.542 83.5781C119.31 83.5781 119.886 83.7893 120.289 84.2309C120.692 84.6533 120.903 85.2677 120.903 86.0549V87.1301H119.386V85.9589C119.386 85.3253 119.118 85.0181 118.58 85.0181C118.042 85.0181 117.774 85.3253 117.774 85.9589V91.6037C117.774 92.2181 118.042 92.5253 118.58 92.5253C119.118 92.5253 119.386 92.2181 119.386 91.6037V90.0677H120.903V91.4885C120.903 92.2757 120.692 92.8901 120.289 93.3125C119.886 93.7541 119.31 93.9653 118.542 93.9653C117.793 93.9461 117.198 93.7157 116.794 93.2933Z" fill="#CF072C"/>
<path d="M122.441 93.28C122.037 92.8384 121.826 92.224 121.826 91.3984V83.6992H123.42V91.5136C123.42 91.8592 123.477 92.1088 123.631 92.2624C123.765 92.416 123.977 92.4928 124.245 92.4928C124.514 92.4928 124.706 92.416 124.841 92.2624C124.975 92.1088 125.052 91.8592 125.052 91.5136V83.6992H126.588V91.3984C126.588 92.224 126.377 92.8384 125.973 93.28C125.57 93.7216 124.975 93.9328 124.188 93.9328C123.439 93.952 122.844 93.7216 122.441 93.28Z" fill="#CF072C"/>
<path d="M127.734 83.6992H132.112V85.1392H129.347V87.808H131.555V89.248H129.347V92.3584H132.112V93.7984H127.734V83.6992Z" fill="#CF072C"/>
<path d="M133.013 83.6992H134.607V92.3584H137.237V93.7984H132.994V83.6992H133.013Z" fill="#CF072C"/>
<path d="M139.319 83.6992H141.489L143.14 93.7984H141.546L141.258 91.8016V91.8208H139.434L139.146 93.7984H137.668L139.319 83.6992ZM141.066 90.4576L140.356 85.4656H140.337L139.646 90.4576H141.066Z" fill="#CF072C"/>
<path d="M146.246 83.6992H148.685C149.472 83.6992 150.086 83.9104 150.47 84.3328C150.873 84.7552 151.065 85.3696 151.065 86.1952V91.3024C151.065 92.128 150.873 92.7424 150.47 93.1648C150.067 93.5872 149.472 93.7984 148.685 93.7984H146.246V83.6992ZM148.665 92.3584C148.934 92.3584 149.126 92.2816 149.26 92.128C149.395 91.9744 149.472 91.7248 149.472 91.3792V86.1376C149.472 85.792 149.395 85.5424 149.26 85.3888C149.126 85.2352 148.915 85.1584 148.665 85.1584H147.859V92.3584H148.665Z" fill="#CF072C"/>
<path d="M152.156 83.6992H156.534V85.1392H153.769V87.808H155.977V89.248H153.769V92.3584H156.534V93.7984H152.156V83.6992Z" fill="#CF072C"/>
<path d="M160.259 93.2738C159.856 92.8322 159.645 92.2178 159.645 91.3922V86.093C159.645 85.2674 159.856 84.653 160.259 84.2114C160.662 83.7698 161.257 83.5586 162.045 83.5586C162.832 83.5586 163.408 83.7698 163.83 84.2114C164.233 84.653 164.445 85.2674 164.445 86.093V86.957H162.928V85.997C162.928 85.3442 162.64 84.9986 162.102 84.9986C161.545 84.9986 161.277 85.325 161.277 85.997V91.5266C161.277 92.1794 161.565 92.5058 162.102 92.5058C162.659 92.5058 162.928 92.1794 162.928 91.5266V89.549H162.121V88.109H164.425V91.4114C164.425 92.237 164.214 92.8514 163.811 93.293C163.408 93.7346 162.813 93.9458 162.025 93.9458C161.238 93.9458 160.662 93.7154 160.259 93.2738Z" fill="#CF072C"/>
<path d="M165.465 83.6992H169.842V85.1392H167.078V87.808H169.286V89.248H167.078V92.3584H169.842V93.7984H165.465V83.6992Z" fill="#CF072C"/>
<path d="M171.089 93.2784C170.686 92.8368 170.494 92.2224 170.494 91.3968V90.8208H172.011V91.512C172.011 92.1648 172.28 92.4912 172.837 92.4912C173.105 92.4912 173.317 92.4144 173.451 92.2608C173.585 92.1072 173.662 91.8383 173.662 91.4927C173.662 91.0703 173.566 90.7056 173.374 90.3792C173.182 90.0528 172.817 89.6688 172.299 89.2272C171.627 88.6512 171.185 88.1328 170.917 87.672C170.648 87.2112 170.533 86.6736 170.533 86.0976C170.533 85.2912 170.744 84.6768 171.147 84.2544C171.55 83.8128 172.145 83.6016 172.933 83.6016C173.701 83.6016 174.277 83.8128 174.68 84.2544C175.064 84.696 175.275 85.3104 175.275 86.136V86.5584H173.758V86.04C173.758 85.6944 173.681 85.4448 173.547 85.2912C173.413 85.1376 173.201 85.0608 172.952 85.0608C172.414 85.0608 172.145 85.3872 172.145 86.0208C172.145 86.3856 172.241 86.7312 172.453 87.0384C172.645 87.3648 173.009 87.7488 173.528 88.1904C174.2 88.7664 174.661 89.2848 174.91 89.7648C175.16 90.2256 175.294 90.7824 175.294 91.416C175.294 92.2416 175.083 92.8752 174.68 93.3168C174.277 93.7584 173.662 93.9888 172.875 93.9888C172.088 93.9504 171.493 93.72 171.089 93.2784Z" fill="#CF072C"/>
<path d="M177.448 85.1392H175.777V83.6992H180.731V85.1392H179.061V93.7984H177.467V85.1392H177.448Z" fill="#CF072C"/>
<path d="M181.498 83.6992H183.092V93.7984H181.498V83.6992Z" fill="#CF072C"/>
<path d="M184.802 93.279C184.379 92.8374 184.168 92.223 184.168 91.3974V86.0982C184.168 85.2918 184.379 84.6582 184.802 84.2166C185.224 83.775 185.819 83.5638 186.606 83.5638C187.394 83.5638 187.989 83.775 188.411 84.2166C188.834 84.6582 189.045 85.2918 189.045 86.0982V91.3974C189.045 92.2038 188.834 92.8374 188.411 93.279C187.989 93.7206 187.394 93.951 186.606 93.951C185.819 93.951 185.224 93.7206 184.802 93.279ZM186.741 81.375H188.488L186.933 83.0262H185.723L186.741 81.375ZM187.432 91.5126V86.0022C187.432 85.3494 187.144 85.0038 186.606 85.0038C186.05 85.0038 185.781 85.3302 185.781 86.0022V91.5126C185.781 92.1654 186.069 92.511 186.606 92.511C187.144 92.511 187.432 92.1654 187.432 91.5126Z" fill="#CF072C"/>
<path d="M190.113 83.6992H192.129L193.684 89.7472H193.704V83.6992H195.124V93.7984H193.473L191.553 86.4256H191.534V93.7984H190.113V83.6992Z" fill="#CF072C"/>
<path d="M198.664 83.6992H201.026C201.813 83.6992 202.408 83.9104 202.811 84.3328C203.214 84.7552 203.406 85.3696 203.406 86.1952V87.1936C203.406 88.0192 203.214 88.6336 202.811 89.056C202.408 89.4784 201.813 89.6896 201.026 89.6896H200.277V93.7984H198.683V83.6992H198.664ZM201.006 88.2496C201.275 88.2496 201.467 88.1728 201.602 88.0384C201.736 87.904 201.794 87.6544 201.794 87.3088V86.1184C201.794 85.7728 201.736 85.5232 201.602 85.3888C201.467 85.2544 201.275 85.1776 201.006 85.1776H200.258V88.2688H201.006V88.2496Z" fill="#CF072C"/>
<path d="M204.825 93.279C204.422 92.8374 204.211 92.223 204.211 91.3974V83.6982H205.805V91.5126C205.805 91.8582 205.862 92.1078 206.016 92.2614C206.15 92.415 206.361 92.4918 206.63 92.4918C206.899 92.4918 207.091 92.415 207.225 92.2614C207.36 92.1078 207.437 91.8582 207.437 91.5126V83.6982H208.973V91.3974C208.973 92.223 208.761 92.8374 208.358 93.279C207.955 93.7206 207.36 93.9318 206.573 93.9318C205.824 93.951 205.229 93.7206 204.825 93.279ZM206.745 81.375H208.493L206.937 83.0262H205.728L206.745 81.375Z" fill="#CF072C"/>
<path d="M210.127 83.6992H212.546C213.372 83.6992 213.967 83.8912 214.351 84.2752C214.735 84.6592 214.927 85.2352 214.927 86.0224V86.4256C214.927 86.944 214.85 87.3664 214.677 87.6928C214.505 88.0192 214.255 88.2496 213.909 88.4032V88.4224C214.697 88.6912 215.1 89.4016 215.1 90.5344V91.3984C215.1 92.1856 214.889 92.7616 214.485 93.184C214.082 93.6064 213.468 93.7984 212.661 93.7984H210.146V83.6992H210.127ZM212.354 87.808C212.681 87.808 212.911 87.7312 213.084 87.5584C213.237 87.3856 213.333 87.1168 213.333 86.7328V86.176C213.333 85.8112 213.276 85.5424 213.141 85.3888C213.007 85.216 212.796 85.1392 212.527 85.1392H211.759V87.808H212.354ZM212.642 92.3584C212.93 92.3584 213.141 92.2816 213.276 92.128C213.41 91.9744 213.487 91.7248 213.487 91.36V90.4768C213.487 90.016 213.41 89.6896 213.237 89.5168C213.065 89.344 212.815 89.248 212.45 89.248H211.74V92.3584H212.642Z" fill="#CF072C"/>
<path d="M215.996 83.6992H217.589V92.3584H220.22V93.7984H215.977V83.6992H215.996Z" fill="#CF072C"/>
<path d="M221.014 83.6992H222.607V93.7984H221.014V83.6992Z" fill="#CF072C"/>
<path d="M224.312 93.2933C223.908 92.8709 223.697 92.2565 223.697 91.4693V86.0549C223.697 85.2677 223.908 84.6533 224.312 84.2309C224.715 83.8085 225.291 83.5781 226.059 83.5781C226.827 83.5781 227.403 83.7893 227.806 84.2309C228.209 84.6533 228.42 85.2677 228.42 86.0549V87.1301H226.904V85.9589C226.904 85.3253 226.635 85.0181 226.097 85.0181C225.56 85.0181 225.291 85.3253 225.291 85.9589V91.6037C225.291 92.2181 225.56 92.5253 226.097 92.5253C226.635 92.5253 226.904 92.2181 226.904 91.6037V90.0677H228.42V91.4885C228.42 92.2757 228.209 92.8901 227.806 93.3125C227.403 93.7541 226.827 93.9653 226.059 93.9653C225.291 93.9653 224.715 93.7157 224.312 93.2933Z" fill="#CF072C"/>
<path d="M230.632 83.6992H232.801L234.452 93.7984H232.859L232.571 91.8016V91.8208H230.747L230.459 93.7984H228.98L230.632 83.6992ZM232.379 90.4576L231.668 85.4656H231.63L230.939 90.4576H232.379Z" fill="#CF072C"/>
<path d="M239.019 89.4976L237.08 83.6992H238.789L239.883 87.4048H239.922L241.016 83.6992H242.571L240.632 89.4976V93.7984H239.038V89.4976H239.019Z" fill="#CF072C"/>
<path d="M245.623 83.6992H247.639L249.194 89.7472H249.213V83.6992H250.634V93.7984H248.983L247.063 86.4256H247.044V93.7984H245.623V83.6992Z" fill="#CF072C"/>
<path d="M251.824 83.6992H256.202V85.1392H253.437V87.808H255.645V89.248H253.437V92.3584H256.202V93.7984H251.824V83.6992Z" fill="#CF072C"/>
<path d="M257.605 93.2738C257.201 92.8322 256.99 92.2178 256.99 91.3922V86.093C256.99 85.2674 257.201 84.653 257.605 84.2114C258.008 83.7698 258.603 83.5586 259.39 83.5586C260.177 83.5586 260.753 83.7698 261.176 84.2114C261.579 84.653 261.79 85.2674 261.79 86.093V86.957H260.273V85.997C260.273 85.3442 259.985 84.9986 259.448 84.9986C258.891 84.9986 258.622 85.325 258.622 85.997V91.5266C258.622 92.1794 258.91 92.5058 259.448 92.5058C260.005 92.5058 260.273 92.1794 260.273 91.5266V89.549H259.467V88.109H261.771V91.4114C261.771 92.237 261.56 92.8514 261.157 93.293C260.753 93.7346 260.158 93.9458 259.371 93.9458C258.584 93.9458 258.027 93.7154 257.605 93.2738Z" fill="#CF072C"/>
<path d="M263.307 93.2738C262.885 92.8322 262.674 92.2178 262.674 91.3922V86.093C262.674 85.2866 262.885 84.653 263.307 84.2114C263.73 83.7698 264.325 83.5586 265.112 83.5586C265.899 83.5586 266.495 83.7698 266.917 84.2114C267.339 84.653 267.551 85.2866 267.551 86.093V91.3922C267.551 92.1986 267.339 92.8322 266.917 93.2738C266.495 93.7154 265.899 93.9458 265.112 93.9458C264.344 93.9458 263.73 93.7154 263.307 93.2738ZM265.957 91.5074V85.997C265.957 85.3442 265.669 84.9986 265.131 84.9986C264.575 84.9986 264.306 85.325 264.306 85.997V91.5074C264.306 92.1602 264.594 92.5058 265.131 92.5058C265.669 92.5058 265.957 92.1602 265.957 91.5074Z" fill="#CF072C"/>
<path d="M269.148 93.2933C268.744 92.8709 268.533 92.2565 268.533 91.4693V86.0549C268.533 85.2677 268.744 84.6533 269.148 84.2309C269.551 83.8085 270.127 83.5781 270.895 83.5781C271.663 83.5781 272.239 83.7893 272.642 84.2309C273.045 84.6533 273.256 85.2677 273.256 86.0549V87.1301H271.74V85.9589C271.74 85.3253 271.471 85.0181 270.933 85.0181C270.396 85.0181 270.127 85.3253 270.127 85.9589V91.6037C270.127 92.2181 270.396 92.5253 270.933 92.5253C271.471 92.5253 271.74 92.2181 271.74 91.6037V90.0677H273.256V91.4885C273.256 92.2757 273.045 92.8901 272.642 93.3125C272.239 93.7541 271.663 93.9653 270.895 93.9653C270.127 93.9461 269.551 93.7157 269.148 93.2933Z" fill="#CF072C"/>
<path d="M274.215 83.6992H275.808V93.7984H274.215V83.6992Z" fill="#CF072C"/>
<path d="M277.52 93.2738C277.098 92.8322 276.887 92.2178 276.887 91.3922V86.093C276.887 85.2866 277.098 84.653 277.52 84.2114C277.943 83.7698 278.538 83.5586 279.325 83.5586C280.112 83.5586 280.708 83.7698 281.13 84.2114C281.552 84.653 281.764 85.2866 281.764 86.093V91.3922C281.764 92.1986 281.552 92.8322 281.13 93.2738C280.708 93.7154 280.112 93.9458 279.325 93.9458C278.538 93.9458 277.943 93.7154 277.52 93.2738ZM280.151 91.5074V85.997C280.151 85.3442 279.863 84.9986 279.325 84.9986C278.768 84.9986 278.5 85.325 278.5 85.997V91.5074C278.5 92.1602 278.787 92.5058 279.325 92.5058C279.882 92.5058 280.151 92.1602 280.151 91.5074Z" fill="#CF072C"/>
<path d="M283.142 93.2784C282.739 92.8368 282.547 92.2224 282.547 91.3968V90.8208H284.064V91.512C284.064 92.1648 284.332 92.4912 284.889 92.4912C285.158 92.4912 285.369 92.4144 285.504 92.2608C285.638 92.1072 285.715 91.8383 285.715 91.4927C285.715 91.0703 285.619 90.7056 285.427 90.3792C285.235 90.0528 284.87 89.6688 284.352 89.2272C283.68 88.6512 283.238 88.1328 282.969 87.672C282.7 87.2112 282.585 86.6736 282.585 86.0976C282.585 85.2912 282.796 84.6768 283.2 84.2544C283.603 83.8128 284.198 83.6016 284.985 83.6016C285.753 83.6016 286.329 83.8128 286.732 84.2544C287.116 84.696 287.328 85.3104 287.328 86.136V86.5584H285.811V86.04C285.811 85.6944 285.734 85.4448 285.6 85.2912C285.465 85.1376 285.254 85.0608 285.004 85.0608C284.467 85.0608 284.198 85.3872 284.198 86.0208C284.198 86.3856 284.294 86.7312 284.505 87.0384C284.697 87.3648 285.062 87.7488 285.58 88.1904C286.252 88.7664 286.713 89.2848 286.963 89.7648C287.212 90.2256 287.347 90.7824 287.347 91.416C287.347 92.2416 287.136 92.8752 286.732 93.3168C286.329 93.7584 285.715 93.9888 284.928 93.9888C284.14 93.9504 283.545 93.72 283.142 93.2784Z" fill="#CF072C"/>
<path d="M290.574 83.6992H293.013C293.8 83.6992 294.414 83.9104 294.798 84.3328C295.201 84.7552 295.393 85.3696 295.393 86.1952V91.3024C295.393 92.128 295.201 92.7424 294.798 93.1648C294.395 93.5872 293.8 93.7984 293.013 93.7984H290.574V83.6992ZM292.993 92.3584C293.262 92.3584 293.454 92.2816 293.589 92.128C293.723 91.9744 293.8 91.7248 293.8 91.3792V86.1376C293.8 85.792 293.723 85.5424 293.589 85.3888C293.454 85.2352 293.243 85.1584 292.993 85.1584H292.187V92.3584H292.993Z" fill="#CF072C"/>
<path d="M296.482 83.6992H300.86V85.1392H298.095V87.808H300.303V89.248H298.095V92.3584H300.86V93.7984H296.482V83.6992Z" fill="#CF072C"/>
<path d="M301.763 83.6992H303.357V92.3584H305.987V93.7984H301.744V83.6992H301.763Z" fill="#CF072C"/>
<path d="M309.102 83.6992H311.463C312.25 83.6992 312.846 83.9104 313.249 84.3328C313.652 84.7552 313.844 85.3696 313.844 86.1952V87.1936C313.844 88.0192 313.652 88.6336 313.249 89.056C312.846 89.4784 312.25 89.6896 311.463 89.6896H310.714V93.7984H309.121V83.6992H309.102ZM311.463 88.2496C311.732 88.2496 311.924 88.1728 312.058 88.0384C312.193 87.904 312.25 87.6544 312.25 87.3088V86.1184C312.25 85.7728 312.193 85.5232 312.058 85.3888C311.924 85.2544 311.732 85.1776 311.463 85.1776H310.714V88.2688H311.463V88.2496Z" fill="#CF072C"/>
<path d="M314.727 83.6992H319.104V85.1392H316.339V87.808H318.547V89.248H316.339V92.3584H319.104V93.7984H314.727V83.6992Z" fill="#CF072C"/>
<path d="M320.004 83.6992H322.385C323.21 83.6992 323.806 83.8912 324.19 84.2752C324.554 84.6592 324.746 85.2352 324.746 86.0224V86.6368C324.746 87.6928 324.401 88.3456 323.69 88.6336V88.6528C324.074 88.768 324.362 88.9984 324.516 89.3632C324.67 89.728 324.746 90.1888 324.746 90.784V92.5504C324.746 92.8384 324.766 93.0688 324.785 93.2416C324.804 93.4144 324.842 93.5872 324.919 93.76H323.287C323.23 93.5872 323.191 93.4336 323.172 93.2992C323.153 93.1456 323.153 92.896 323.153 92.512V90.6688C323.153 90.208 323.076 89.8816 322.922 89.7088C322.769 89.5168 322.519 89.44 322.154 89.44H321.598V93.76H320.004V83.6992ZM322.193 88.0384C322.519 88.0384 322.75 87.9616 322.922 87.7888C323.076 87.616 323.172 87.3472 323.172 86.9632V86.176C323.172 85.8112 323.114 85.5424 322.98 85.3888C322.846 85.216 322.634 85.1392 322.365 85.1392H321.636V88.0192H322.193V88.0384Z" fill="#CF072C"/>
<path d="M326.441 93.279C326.037 92.8374 325.826 92.223 325.826 91.3974V83.6982H327.42V91.5126C327.42 91.8582 327.477 92.1078 327.631 92.2614C327.765 92.415 327.977 92.4918 328.245 92.4918C328.514 92.4918 328.706 92.415 328.841 92.2614C328.975 92.1078 329.052 91.8582 329.052 91.5126V83.6982H330.588V91.3974C330.588 92.223 330.377 92.8374 329.973 93.279C329.57 93.7206 328.975 93.9318 328.188 93.9318C327.439 93.951 326.844 93.7206 326.441 93.279ZM328.361 81.375H330.108L328.553 83.0262H327.343L328.361 81.375Z" fill="#CF072C"/>
</g>
<defs>
<clipPath id="clip0_360_19710">
<rect width="764.571" height="96" fill="white"/>
</clipPath>
<clipPath id="clip1_360_19710">
<rect width="90.2051" height="90.24" fill="white" transform="translate(-0.00390625 3.84375)"/>
</clipPath>
</defs>
</svg>
