<svg width="227" height="1024" viewBox="0 0 227 1024" fill="none" xmlns="http://www.w3.org/2000/svg">
<g clip-path="url(#clip0_358_19394)">
<rect width="226.605" height="1024" fill="#CF072C"/>
<g clip-path="url(#clip1_358_19394)">
<path d="M229.859 638.594C228.334 638.033 225.847 636.829 227.532 634.182C228.655 632.336 227.532 630.972 226.73 629.528C225.687 627.843 224.483 626.319 223.52 624.634C222.236 622.467 220.471 621.745 217.984 621.665C211.806 621.424 205.628 621.023 199.45 620.542C197.925 620.462 197.123 619.579 198.327 618.055C199.45 616.61 200.653 615.246 201.857 613.963C205.548 609.871 205.708 607.785 202.98 604.495C200.413 601.446 197.685 598.638 194.877 595.91C193.914 594.947 193.031 594.145 193.753 592.54C194.154 591.657 193.914 590.614 192.63 590.133C191.106 589.491 189.661 588.448 188.137 587.646C186.131 586.603 184.847 585.319 184.205 582.992C183.243 579.783 182.681 576.333 180.274 573.765C179.311 572.722 179.231 572.161 180.274 571.118C181.879 569.593 181.798 568.39 179.552 567.266C177.305 566.143 175.54 564.217 173.294 563.094C171.689 562.292 172.251 561.489 172.732 560.527C173.855 558.521 176.022 558.12 177.947 557.478C180.274 556.675 181.317 555.713 180.274 553.065C178.108 547.85 179.151 540.388 184.607 537.018C186.853 535.574 188.378 532.926 191.667 533.087C195.92 533.247 199.129 528.834 198.006 524.582C197.284 522.014 196.481 519.447 195.518 516.959C194.556 514.472 194.636 512.547 196.882 510.781C198.888 509.177 200.573 507.171 202.419 505.326C202.98 504.764 203.462 504.282 203.702 503.32C204.906 498.827 206.19 494.414 207.554 490.001C207.955 488.797 208.597 487.834 209.8 487.112C217.422 482.539 224.884 477.885 232.426 473.312C235.154 471.627 237.722 469.3 240.771 468.498C245.344 467.295 250.238 467.295 254.972 466.653C259.465 466.011 263.798 465.208 267.569 462.48C272.784 480.613 275.753 499.789 275.753 519.607C275.753 564.859 261.07 606.581 236.518 640.681C234.272 640.119 232.025 639.397 229.859 638.594Z" fill="white" fill-opacity="0.24"/>
<path d="M-138.957 519.522C-138.957 405.028 -46.1261 312.117 68.3681 312.117C137.61 312.117 198.749 346.217 236.459 398.369C233.731 401.338 230.2 403.022 227.312 405.429C227.071 405.59 226.59 405.59 226.269 405.59C221.936 405.429 217.604 406.392 213.271 405.59C208.858 404.707 204.525 403.022 202.52 398.931C200.754 395.24 198.588 391.95 196.582 388.5C195.138 386.013 193.453 384.729 190.324 385.05C186.072 385.371 185.029 383.606 186.393 379.353C187.676 375.502 186.874 372.614 183.344 370.849C179.492 368.923 175.721 367.078 172.111 364.751C169.543 363.066 166.494 362.023 163.606 360.739C162.563 360.258 161.921 359.616 162.082 358.252C162.322 356.567 162.082 354.962 160.557 353.839C160.076 353.518 159.835 353.037 159.915 352.395C160.557 348.704 158.07 347.099 155.502 345.013C152.774 342.767 148.442 341.804 147.96 337.311C147.72 335.064 146.917 334.904 144.911 335.786C143.307 336.428 141.782 338.193 139.857 337.471C135.765 336.027 131.673 334.422 127.581 332.818C126.458 332.416 124.933 331.133 124.131 331.935C123.168 332.898 123.649 334.743 123.89 336.187C124.051 336.91 124.933 337.632 125.575 338.274C129.025 341.643 131.432 345.334 131.111 350.63C130.951 352.956 131.111 355.524 131.833 357.851C132.395 359.776 132.074 360.819 129.827 360.579C128.143 360.338 127.501 360.819 126.939 362.825C125.816 366.516 124.773 370.287 123.088 373.897C120.36 379.594 116.669 384.408 112.417 389.062C107.522 394.518 102.708 399.974 97.2523 404.948C95.9686 406.152 94.6046 407.596 92.679 408.238C85.8591 410.404 79.0392 412.33 72.46 414.977C64.7575 418.106 55.8515 418.347 49.5933 424.846C47.0258 427.574 42.9338 429.099 42.4524 433.511C42.2919 434.875 41.971 436.159 41.6501 437.443C39.8047 436.56 37.9593 435.678 35.9534 434.715C35.3116 437.122 36.1941 439.208 35.2313 441.294C31.4603 449.318 28.7324 457.662 27.2881 466.488C26.887 468.975 26.4056 472.024 22.5543 471.462C21.9125 471.382 21.752 472.024 21.3508 472.345C18.4624 474.912 17.981 477.961 19.4252 481.411C19.9868 482.775 19.1043 482.615 18.4624 482.454C15.253 481.572 11.9634 481.893 8.75406 481.491C7.47032 481.331 6.90869 480.85 6.42728 479.807C4.66212 476.196 2.73651 472.666 1.05159 468.975C0.409714 467.611 -0.232162 467.049 -1.83684 466.889C-5.36714 466.568 -9.05792 466.728 -12.0266 464.161C-12.9092 463.359 -13.872 462.717 -14.9952 462.396C-16.6802 461.834 -18.2046 461.433 -19.7291 463.038C-20.8523 464.161 -22.2163 465.043 -23.5803 465.926C-24.0617 466.247 -24.2222 467.29 -25.0245 466.648C-25.5862 466.167 -26.1478 465.525 -25.7466 464.642C-25.5059 464.161 -25.8269 463.439 -25.5862 463.038C-23.5001 459.908 -24.6233 458.143 -27.9932 457.261C-28.0734 457.261 -28.1536 457.1 -28.2339 457.1C-30.4002 456.298 -29.6781 455.175 -28.4746 454.132C-26.6292 452.527 -24.5431 451.885 -22.0559 452.046C-19.2477 452.286 -16.7604 448.756 -18.0441 446.349C-19.8093 443.059 -20.5314 439.609 -20.6919 435.999C-20.7721 435.196 -21.0128 434.795 -21.8151 434.875C-23.3396 434.956 -25.185 434.234 -25.7466 436.641C-25.9071 437.443 -26.6292 437.684 -27.4315 437.684C-29.1967 437.603 -31.2828 437.122 -30.7211 440.251C-30.5607 441.214 -31.8444 441.214 -32.4863 441.535C-34.5724 442.578 -37.3806 442.819 -38.5841 444.905C-41.1516 449.398 -45.2435 452.527 -48.4529 456.378C-50.218 458.464 -52.5448 460.149 -52.5448 463.679C-52.5448 466.648 -52.3844 470.098 -54.5507 472.666C-55.1926 473.388 -54.5507 473.709 -54.2298 474.19C-52.5448 476.758 -50.1378 478.603 -48.132 480.85C-46.6877 482.374 -46.6877 485.423 -48.0517 485.744C-49.175 485.985 -50.9401 485.904 -50.539 487.349C-50.0576 489.354 -50.8599 492.082 -48.3727 493.286C-43.3179 495.693 -41.3923 499.945 -40.7504 505.161C-40.6702 506.123 -40.3492 507.487 -41.5527 507.808C-42.5958 508.129 -43.8795 509.092 -44.8424 507.487C-45.0831 507.086 -45.4842 506.685 -46.2063 507.086C-47.811 508.049 -48.8541 514.869 -47.3296 515.912C-42.7563 519.041 -38.8248 523.133 -33.77 525.62C-28.3944 528.268 -23.0989 531.076 -17.8034 533.884C-16.5999 534.526 -15.6371 535.168 -14.7545 536.291C-11.6254 540.704 -8.33582 544.957 -5.12643 549.289C-4.00316 550.814 -1.91708 552.098 -1.99731 554.103C-2.15778 556.831 -1.11473 558.998 0.0887756 561.244C0.730652 562.367 1.93416 563.651 1.85393 564.775C1.53299 567.663 3.61908 568.706 5.304 569.99C6.10634 570.632 6.90868 571.273 7.47032 572.076C10.8401 576.729 14.21 581.383 17.6601 585.956C18.1415 586.598 18.7833 587.16 18.6229 588.123C18.1415 590.449 19.6659 591.733 21.3508 592.776C23.4369 594.06 24.5602 595.584 24.2393 598.152C23.9986 599.676 24.2393 601.04 25.523 602.404C27.2079 604.089 28.8126 606.095 28.0905 608.903C27.7696 610.267 29.0533 610.428 29.6952 610.749C31.5406 611.631 32.3429 613.236 32.9848 614.841C34.9104 620.136 37.0767 625.271 39.6442 630.326C40.2059 631.529 40.928 632.893 40.8477 634.097C40.607 637.707 41.7303 640.676 43.5757 643.805C47.2665 649.903 50.877 656.081 54.0061 662.5C56.4934 667.554 60.9063 671.967 59.783 678.386C59.6225 679.108 60.1039 679.59 60.7458 679.83C65.2389 681.595 67.646 685.768 71.096 688.656C71.9786 689.378 72.0588 690.421 72.3798 691.224C73.0216 693.31 73.1019 695.476 73.7437 697.562C74.3856 699.728 74.1449 702.216 75.5891 704.221C77.7554 707.19 80.4032 709.677 83.1311 712.245C84.3347 713.368 85.137 714.652 85.2975 716.176C85.4579 717.781 86.4207 718.744 87.3033 719.867C88.7475 721.793 90.3522 723.638 91.7162 725.644C84.1742 726.446 76.4717 727.008 68.689 727.008C-46.0459 726.847 -138.957 634.017 -138.957 519.522Z" fill="white" fill-opacity="0.24"/>
</g>
<path d="M49.1602 204.818C49.1602 202.153 51.4151 199.898 54.08 199.898C56.745 199.898 58.9999 202.153 58.9999 204.818C58.9999 207.483 56.745 209.738 54.08 209.738C51.4151 209.738 49.1602 207.688 49.1602 204.818Z" fill="white" fill-opacity="0.16"/>
<path d="M49.1602 182.271C49.1602 179.606 51.4151 177.352 54.08 177.352C56.745 177.352 58.9999 179.606 58.9999 182.271C58.9999 184.936 56.745 187.191 54.08 187.191C51.4151 187.191 49.1602 184.936 49.1602 182.271Z" fill="white" fill-opacity="0.16"/>
<path d="M49.1602 159.514C49.1602 156.849 51.4151 154.594 54.08 154.594C56.745 154.594 58.9999 156.849 58.9999 159.514C58.9999 162.179 56.745 164.433 54.08 164.433C51.4151 164.433 49.1602 162.179 49.1602 159.514Z" fill="white" fill-opacity="0.16"/>
<path d="M49.1602 136.764C49.1602 134.099 51.4151 131.844 54.08 131.844C56.745 131.844 58.9999 134.099 58.9999 136.764C58.9999 139.429 56.745 141.683 54.08 141.683C51.4151 141.683 49.1602 139.634 49.1602 136.764Z" fill="white" fill-opacity="0.16"/>
<path d="M49.1602 114.217C49.1602 111.552 51.4151 109.297 54.08 109.297C56.745 109.297 58.9999 111.552 58.9999 114.217C58.9999 116.882 56.745 119.137 54.08 119.137C51.4151 119.137 49.1602 116.882 49.1602 114.217Z" fill="white" fill-opacity="0.16"/>
<path d="M49.1602 91.455C49.1602 88.7901 51.4151 86.5352 54.08 86.5352C56.745 86.5352 58.9999 88.7901 58.9999 91.455C58.9999 94.1199 56.745 96.3749 54.08 96.3749C51.4151 96.3749 49.1602 94.3249 49.1602 91.455Z" fill="white" fill-opacity="0.16"/>
<path d="M49.1602 68.9081C49.1602 66.2432 51.4151 63.9883 54.08 63.9883C56.745 63.9883 58.9999 66.2432 58.9999 68.9081C58.9999 71.573 56.745 73.828 54.08 73.828C51.4151 73.828 49.1602 71.573 49.1602 68.9081Z" fill="white" fill-opacity="0.16"/>
<path d="M25.791 204.818C25.791 202.153 28.0459 199.898 30.7109 199.898C33.3758 199.898 35.6307 202.153 35.6307 204.818C35.6307 207.483 33.3758 209.738 30.7109 209.738C28.0459 209.738 25.791 207.688 25.791 204.818Z" fill="white" fill-opacity="0.16"/>
<path d="M25.791 182.271C25.791 179.606 28.0459 177.352 30.7109 177.352C33.3758 177.352 35.6307 179.606 35.6307 182.271C35.6307 184.936 33.3758 187.191 30.7109 187.191C28.0459 187.191 25.791 184.936 25.791 182.271Z" fill="white" fill-opacity="0.16"/>
<path d="M25.791 159.514C25.791 156.849 28.0459 154.594 30.7109 154.594C33.3758 154.594 35.6307 156.849 35.6307 159.514C35.6307 162.179 33.3758 164.433 30.7109 164.433C28.0459 164.433 25.791 162.179 25.791 159.514Z" fill="white" fill-opacity="0.16"/>
<path d="M25.791 136.764C25.791 134.099 28.0459 131.844 30.7109 131.844C33.3758 131.844 35.6307 134.099 35.6307 136.764C35.6307 139.429 33.3758 141.683 30.7109 141.683C28.0459 141.683 25.791 139.634 25.791 136.764Z" fill="white" fill-opacity="0.16"/>
<path d="M25.791 114.217C25.791 111.552 28.0459 109.297 30.7109 109.297C33.3758 109.297 35.6307 111.552 35.6307 114.217C35.6307 116.882 33.3758 119.137 30.7109 119.137C28.0459 119.137 25.791 116.882 25.791 114.217Z" fill="white" fill-opacity="0.16"/>
<path d="M25.791 91.455C25.791 88.7901 28.0459 86.5352 30.7109 86.5352C33.3758 86.5352 35.6307 88.7901 35.6307 91.455C35.6307 94.1199 33.3758 96.3749 30.7109 96.3749C28.0459 96.3749 25.791 94.3249 25.791 91.455Z" fill="white" fill-opacity="0.16"/>
<path d="M25.791 68.9081C25.791 66.2432 28.0459 63.9883 30.7109 63.9883C33.3758 63.9883 35.6307 66.2432 35.6307 68.9081C35.6307 71.573 33.3758 73.828 30.7109 73.828C28.0459 73.828 25.791 71.573 25.791 68.9081Z" fill="white" fill-opacity="0.16"/>
<path d="M2.21875 204.818C2.21875 202.153 4.47369 199.898 7.13861 199.898C9.80353 199.898 12.0585 202.153 12.0585 204.818C12.0585 207.483 9.80353 209.738 7.13861 209.738C4.47369 209.738 2.21875 207.688 2.21875 204.818Z" fill="white" fill-opacity="0.16"/>
<path d="M2.21875 182.271C2.21875 179.606 4.47369 177.352 7.13861 177.352C9.80353 177.352 12.0585 179.606 12.0585 182.271C12.0585 184.936 9.80353 187.191 7.13861 187.191C4.47369 187.191 2.21875 184.936 2.21875 182.271Z" fill="white" fill-opacity="0.16"/>
<path d="M2.21875 159.514C2.21875 156.849 4.47369 154.594 7.13861 154.594C9.80353 154.594 12.0585 156.849 12.0585 159.514C12.0585 162.179 9.80353 164.433 7.13861 164.433C4.47369 164.433 2.21875 162.179 2.21875 159.514Z" fill="white" fill-opacity="0.16"/>
<path d="M2.21875 136.764C2.21875 134.099 4.47369 131.844 7.13861 131.844C9.80353 131.844 12.0585 134.099 12.0585 136.764C12.0585 139.429 9.80353 141.683 7.13861 141.683C4.47369 141.888 2.21875 139.634 2.21875 136.764Z" fill="white" fill-opacity="0.16"/>
<path d="M2.21875 114.217C2.21875 111.552 4.47369 109.297 7.13861 109.297C9.80353 109.297 12.0585 111.552 12.0585 114.217C12.0585 116.882 9.80353 119.137 7.13861 119.137C4.47369 119.137 2.21875 116.882 2.21875 114.217Z" fill="white" fill-opacity="0.16"/>
<path d="M2.21875 91.455C2.21875 88.7901 4.47369 86.5352 7.13861 86.5352C9.80353 86.5352 12.0585 88.7901 12.0585 91.455C12.0585 94.1199 9.80353 96.3749 7.13861 96.3749C4.47369 96.5799 2.21875 94.3249 2.21875 91.455Z" fill="white" fill-opacity="0.16"/>
<path d="M2.21875 68.9081C2.21875 66.2432 4.47369 63.9883 7.13861 63.9883C9.80353 63.9883 12.0585 66.2432 12.0585 68.9081C12.0585 71.573 9.80353 73.828 7.13861 73.828C4.47369 73.828 2.21875 71.573 2.21875 68.9081Z" fill="white" fill-opacity="0.16"/>
<path d="M32.1465 180.83C32.1465 178.165 34.4014 175.91 37.0663 175.91C39.7312 175.91 41.9862 178.165 41.9862 180.83C41.9862 183.495 39.7312 185.75 37.0663 185.75C34.4014 185.75 32.1465 183.495 32.1465 180.83Z" fill="white"/>
<path d="M32.1465 158.076C32.1465 155.411 34.4014 153.156 37.0663 153.156C39.7312 153.156 41.9862 155.411 41.9862 158.076C41.9862 160.741 39.7312 162.996 37.0663 162.996C34.4014 162.996 32.1465 160.946 32.1465 158.076Z" fill="white"/>
<path d="M32.1465 135.525C32.1465 132.86 34.4014 130.605 37.0663 130.605C39.7312 130.605 41.9862 132.86 41.9862 135.525C41.9862 138.19 39.7312 140.445 37.0663 140.445C34.4014 140.445 32.1465 138.19 32.1465 135.525Z" fill="white"/>
<path d="M32.1465 112.775C32.1465 110.11 34.4014 107.855 37.0663 107.855C39.7312 107.855 41.9862 110.11 41.9862 112.775C41.9862 115.44 39.7312 117.695 37.0663 117.695C34.4014 117.695 32.1465 115.645 32.1465 112.775Z" fill="white"/>
<path d="M32.1465 90.2285C32.1465 87.5635 34.4014 85.3086 37.0663 85.3086C39.7312 85.3086 41.9862 87.5635 41.9862 90.2285C41.9862 92.8934 39.7312 95.1483 37.0663 95.1483C34.4014 95.1483 32.1465 92.8934 32.1465 90.2285Z" fill="white"/>
<path d="M32.1465 67.4667C32.1465 64.8018 34.4014 62.5469 37.0663 62.5469C39.7312 62.5469 41.9862 64.8018 41.9862 67.4667C41.9862 70.1316 39.7312 72.3866 37.0663 72.3866C34.4014 72.3866 32.1465 70.3366 32.1465 67.4667Z" fill="white"/>
<path d="M32.1465 44.9198C32.1465 42.2549 34.4014 40 37.0663 40C39.7312 40 41.9862 42.2549 41.9862 44.9198C41.9862 47.5848 39.7312 49.8397 37.0663 49.8397C34.4014 49.8397 32.1465 47.5848 32.1465 44.9198Z" fill="white"/>
<path d="M8.57422 180.83C8.57422 178.165 10.8292 175.91 13.4941 175.91C16.159 175.91 18.4139 178.165 18.4139 180.83C18.4139 183.495 16.159 185.75 13.4941 185.75C10.8292 185.75 8.57422 183.495 8.57422 180.83Z" fill="white"/>
<path d="M8.57422 158.076C8.57422 155.411 10.8292 153.156 13.4941 153.156C16.159 153.156 18.4139 155.411 18.4139 158.076C18.4139 160.741 16.159 162.996 13.4941 162.996C10.8292 163.201 8.57422 160.946 8.57422 158.076Z" fill="white"/>
<path d="M8.57422 135.525C8.57422 132.86 10.8292 130.605 13.4941 130.605C16.159 130.605 18.4139 132.86 18.4139 135.525C18.4139 138.19 16.159 140.445 13.4941 140.445C10.8292 140.445 8.57422 138.19 8.57422 135.525Z" fill="white"/>
<path d="M8.57422 112.775C8.57422 110.11 10.8292 107.855 13.4941 107.855C16.159 107.855 18.4139 110.11 18.4139 112.775C18.4139 115.44 16.159 117.695 13.4941 117.695C10.8292 117.9 8.57422 115.645 8.57422 112.775Z" fill="white"/>
<path d="M8.57422 90.2285C8.57422 87.5635 10.8292 85.3086 13.4941 85.3086C16.159 85.3086 18.4139 87.5635 18.4139 90.2285C18.4139 92.8934 16.159 95.1483 13.4941 95.1483C10.8292 95.1483 8.57422 92.8934 8.57422 90.2285Z" fill="white"/>
<path d="M8.57422 67.4667C8.57422 64.8018 10.8292 62.5469 13.4941 62.5469C16.159 62.5469 18.4139 64.8018 18.4139 67.4667C18.4139 70.1316 16.159 72.3866 13.4941 72.3866C10.8292 72.5916 8.57422 70.3366 8.57422 67.4667Z" fill="white"/>
<path d="M8.57422 44.9198C8.57422 42.2549 10.8292 40 13.4941 40C16.159 40 18.4139 42.2549 18.4139 44.9198C18.4139 47.5848 16.159 49.8397 13.4941 49.8397C10.8292 49.8397 8.57422 47.5848 8.57422 44.9198Z" fill="white"/>
<path d="M212.791 962.818C212.791 960.153 215.046 957.898 217.711 957.898C220.376 957.898 222.631 960.153 222.631 962.818C222.631 965.483 220.376 967.738 217.711 967.738C215.046 967.738 212.791 965.688 212.791 962.818Z" fill="white" fill-opacity="0.16"/>
<path d="M212.791 940.271C212.791 937.606 215.046 935.352 217.711 935.352C220.376 935.352 222.631 937.606 222.631 940.271C222.631 942.936 220.376 945.191 217.711 945.191C215.046 945.191 212.791 942.936 212.791 940.271Z" fill="white" fill-opacity="0.16"/>
<path d="M212.791 917.514C212.791 914.849 215.046 912.594 217.711 912.594C220.376 912.594 222.631 914.849 222.631 917.514C222.631 920.179 220.376 922.433 217.711 922.433C215.046 922.433 212.791 920.179 212.791 917.514Z" fill="white" fill-opacity="0.16"/>
<path d="M212.791 894.764C212.791 892.099 215.046 889.844 217.711 889.844C220.376 889.844 222.631 892.099 222.631 894.764C222.631 897.429 220.376 899.683 217.711 899.683C215.046 899.683 212.791 897.634 212.791 894.764Z" fill="white" fill-opacity="0.16"/>
<path d="M212.791 872.217C212.791 869.552 215.046 867.297 217.711 867.297C220.376 867.297 222.631 869.552 222.631 872.217C222.631 874.882 220.376 877.137 217.711 877.137C215.046 877.137 212.791 874.882 212.791 872.217Z" fill="white" fill-opacity="0.16"/>
<path d="M212.791 849.455C212.791 846.79 215.046 844.535 217.711 844.535C220.376 844.535 222.631 846.79 222.631 849.455C222.631 852.12 220.376 854.375 217.711 854.375C215.046 854.375 212.791 852.325 212.791 849.455Z" fill="white" fill-opacity="0.16"/>
<path d="M212.791 826.908C212.791 824.243 215.046 821.988 217.711 821.988C220.376 821.988 222.631 824.243 222.631 826.908C222.631 829.573 220.376 831.828 217.711 831.828C215.046 831.828 212.791 829.573 212.791 826.908Z" fill="white" fill-opacity="0.16"/>
<path d="M189.219 962.818C189.219 960.153 191.474 957.898 194.139 957.898C196.804 957.898 199.058 960.153 199.058 962.818C199.058 965.483 196.804 967.738 194.139 967.738C191.474 967.738 189.219 965.688 189.219 962.818Z" fill="white" fill-opacity="0.16"/>
<path d="M189.219 940.271C189.219 937.606 191.474 935.352 194.139 935.352C196.804 935.352 199.058 937.606 199.058 940.271C199.058 942.936 196.804 945.191 194.139 945.191C191.474 945.191 189.219 942.936 189.219 940.271Z" fill="white" fill-opacity="0.16"/>
<path d="M189.219 917.514C189.219 914.849 191.474 912.594 194.139 912.594C196.804 912.594 199.058 914.849 199.058 917.514C199.058 920.179 196.804 922.433 194.139 922.433C191.474 922.433 189.219 920.179 189.219 917.514Z" fill="white" fill-opacity="0.16"/>
<path d="M189.219 894.764C189.219 892.099 191.474 889.844 194.139 889.844C196.804 889.844 199.058 892.099 199.058 894.764C199.058 897.429 196.804 899.683 194.139 899.683C191.474 899.888 189.219 897.634 189.219 894.764Z" fill="white" fill-opacity="0.16"/>
<path d="M189.219 872.217C189.219 869.552 191.474 867.297 194.139 867.297C196.804 867.297 199.058 869.552 199.058 872.217C199.058 874.882 196.804 877.137 194.139 877.137C191.474 877.137 189.219 874.882 189.219 872.217Z" fill="white" fill-opacity="0.16"/>
<path d="M189.219 849.455C189.219 846.79 191.474 844.535 194.139 844.535C196.804 844.535 199.058 846.79 199.058 849.455C199.058 852.12 196.804 854.375 194.139 854.375C191.474 854.58 189.219 852.325 189.219 849.455Z" fill="white" fill-opacity="0.16"/>
<path d="M189.219 826.908C189.219 824.243 191.474 821.988 194.139 821.988C196.804 821.988 199.058 824.243 199.058 826.908C199.058 829.573 196.804 831.828 194.139 831.828C191.474 831.828 189.219 829.573 189.219 826.908Z" fill="white" fill-opacity="0.16"/>
<path d="M219.146 938.83C219.146 936.165 221.401 933.91 224.066 933.91C226.731 933.91 228.986 936.165 228.986 938.83C228.986 941.495 226.731 943.75 224.066 943.75C221.401 943.75 219.146 941.495 219.146 938.83Z" fill="white"/>
<path d="M219.146 916.076C219.146 913.411 221.401 911.156 224.066 911.156C226.731 911.156 228.986 913.411 228.986 916.076C228.986 918.741 226.731 920.996 224.066 920.996C221.401 920.996 219.146 918.946 219.146 916.076Z" fill="white"/>
<path d="M219.146 893.525C219.146 890.86 221.401 888.605 224.066 888.605C226.731 888.605 228.986 890.86 228.986 893.525C228.986 896.19 226.731 898.445 224.066 898.445C221.401 898.445 219.146 896.19 219.146 893.525Z" fill="white"/>
<path d="M219.146 870.775C219.146 868.11 221.401 865.855 224.066 865.855C226.731 865.855 228.986 868.11 228.986 870.775C228.986 873.44 226.731 875.695 224.066 875.695C221.401 875.695 219.146 873.645 219.146 870.775Z" fill="white"/>
<path d="M219.146 848.228C219.146 845.564 221.401 843.309 224.066 843.309C226.731 843.309 228.986 845.564 228.986 848.228C228.986 850.893 226.731 853.148 224.066 853.148C221.401 853.148 219.146 850.893 219.146 848.228Z" fill="white"/>
<path d="M219.146 825.467C219.146 822.802 221.401 820.547 224.066 820.547C226.731 820.547 228.986 822.802 228.986 825.467C228.986 828.132 226.731 830.387 224.066 830.387C221.401 830.387 219.146 828.337 219.146 825.467Z" fill="white"/>
<path d="M219.146 802.92C219.146 800.255 221.401 798 224.066 798C226.731 798 228.986 800.255 228.986 802.92C228.986 805.585 226.731 807.84 224.066 807.84C221.401 807.84 219.146 805.585 219.146 802.92Z" fill="white"/>
<path d="M195.574 938.83C195.574 936.165 197.829 933.91 200.494 933.91C203.159 933.91 205.414 936.165 205.414 938.83C205.414 941.495 203.159 943.75 200.494 943.75C197.829 943.75 195.574 941.495 195.574 938.83Z" fill="white"/>
<path d="M195.574 916.076C195.574 913.411 197.829 911.156 200.494 911.156C203.159 911.156 205.414 913.411 205.414 916.076C205.414 918.741 203.159 920.996 200.494 920.996C197.829 921.201 195.574 918.946 195.574 916.076Z" fill="white"/>
<path d="M195.574 893.525C195.574 890.86 197.829 888.605 200.494 888.605C203.159 888.605 205.414 890.86 205.414 893.525C205.414 896.19 203.159 898.445 200.494 898.445C197.829 898.445 195.574 896.19 195.574 893.525Z" fill="white"/>
<path d="M195.574 870.775C195.574 868.11 197.829 865.855 200.494 865.855C203.159 865.855 205.414 868.11 205.414 870.775C205.414 873.44 203.159 875.695 200.494 875.695C197.829 875.9 195.574 873.645 195.574 870.775Z" fill="white"/>
<path d="M195.574 848.228C195.574 845.564 197.829 843.309 200.494 843.309C203.159 843.309 205.414 845.564 205.414 848.228C205.414 850.893 203.159 853.148 200.494 853.148C197.829 853.148 195.574 850.893 195.574 848.228Z" fill="white"/>
<path d="M195.574 825.467C195.574 822.802 197.829 820.547 200.494 820.547C203.159 820.547 205.414 822.802 205.414 825.467C205.414 828.132 203.159 830.387 200.494 830.387C197.829 830.592 195.574 828.337 195.574 825.467Z" fill="white"/>
<path d="M195.574 802.92C195.574 800.255 197.829 798 200.494 798C203.159 798 205.414 800.255 205.414 802.92C205.414 805.585 203.159 807.84 200.494 807.84C197.829 807.84 195.574 805.585 195.574 802.92Z" fill="white"/>
<path d="M172 938.83C172 936.165 174.255 933.91 176.92 933.91C179.585 933.91 181.84 936.165 181.84 938.83C181.84 941.495 179.585 943.75 176.92 943.75C174.255 943.75 172 941.495 172 938.83Z" fill="white"/>
<path d="M172 916.076C172 913.411 174.255 911.156 176.92 911.156C179.585 911.156 181.84 913.411 181.84 916.076C181.84 918.741 179.585 920.996 176.92 920.996C174.255 921.201 172 918.946 172 916.076Z" fill="white"/>
<path d="M172 893.525C172 890.86 174.255 888.605 176.92 888.605C179.585 888.605 181.84 890.86 181.84 893.525C181.84 896.19 179.585 898.445 176.92 898.445C174.255 898.445 172 896.19 172 893.525Z" fill="white"/>
<path d="M172 870.775C172 868.11 174.255 865.855 176.92 865.855C179.585 865.855 181.84 868.11 181.84 870.775C181.84 873.44 179.585 875.695 176.92 875.695C174.255 875.9 172 873.645 172 870.775Z" fill="white"/>
<path d="M172 848.228C172 845.564 174.255 843.309 176.92 843.309C179.585 843.309 181.84 845.564 181.84 848.228C181.84 850.893 179.585 853.148 176.92 853.148C174.255 853.148 172 850.893 172 848.228Z" fill="white"/>
<path d="M172 825.467C172 822.802 174.255 820.547 176.92 820.547C179.585 820.547 181.84 822.802 181.84 825.467C181.84 828.132 179.585 830.387 176.92 830.387C174.255 830.592 172 828.337 172 825.467Z" fill="white"/>
<path d="M172 802.92C172 800.255 174.255 798 176.92 798C179.585 798 181.84 800.255 181.84 802.92C181.84 805.585 179.585 807.84 176.92 807.84C174.255 807.84 172 805.585 172 802.92Z" fill="white"/>
</g>
<defs>
<clipPath id="clip0_358_19394">
<path d="M0 0H146.605C190.788 0 226.605 35.8172 226.605 80V1024H0V0Z" fill="white"/>
</clipPath>
<clipPath id="clip1_358_19394">
<rect width="414.73" height="414.891" fill="white" transform="translate(-138.957 312.117)"/>
</clipPath>
</defs>
</svg>
